<?xml version="1.0" standalone="no"?>
<!DOCTYPE svg PUBLIC "-//W3C//DTD SVG 1.1//EN" "http://www.w3.org/Graphics/SVG/1.1/DTD/svg11.dtd" >
<svg xmlns="http://www.w3.org/2000/svg">
<metadata>Generated by IcoMoon</metadata>
<defs>
<font id="icomoon" horiz-adv-x="1024">
<font-face units-per-em="1024" ascent="960" descent="-64" />
<missing-glyph horiz-adv-x="1024" />
<glyph unicode="&#x20;" horiz-adv-x="512" d="" />
<glyph unicode="&#xe900;" glyph-name="combined-shape" d="M693.675 960c5.504 0 10.624-2.731 13.653-7.253 3.115-4.523 3.712-10.283 1.707-15.36l-59.221-148.053c12.8-6.315 22.187-17.92 25.771-31.701s1.024-28.501-7.083-40.235c151.936-87.552 272.939-299.691 272.939-484.096 0-131.968-65.024-220.16-193.109-264.277h259.157c9.131 0 16.512-7.381 16.512-16.512s-7.381-16.512-16.512-16.512h-990.976c-9.131 0-16.512 7.381-16.512 16.512s7.381 16.512 16.512 16.512h259.157c-128.085 44.117-193.109 132.267-193.109 264.277 0 184.448 121.003 396.544 272.939 484.096-8.107 11.733-10.667 26.453-7.083 40.235 3.584 13.824 13.013 25.387 25.771 31.701l-59.221 148.053c-2.005 5.077-1.408 10.837 1.707 15.36 3.029 4.523 8.149 7.253 13.653 7.253zM637.867 696.832c-3.413-0.725-6.827-1.067-10.24-1.109h-231.253c-3.413 0-6.827 0.427-10.24 1.109-149.248-76.373-270.507-283.904-270.507-463.531 0-177.835 129.664-264.277 396.373-264.277s396.373 86.443 396.373 264.277c0 179.584-121.259 387.157-270.507 463.531zM512 563.627c109.397-0.128 198.059-88.789 198.187-198.187 0-109.483-88.747-198.229-198.187-198.229s-198.187 88.747-198.187 198.229c0 109.44 88.747 198.187 198.187 198.187zM512 530.56c-91.221 0-165.163-73.941-165.163-165.12 0-91.221 73.941-165.163 165.163-165.163 91.179 0.085 165.077 73.984 165.163 165.12 0 91.221-73.941 165.163-165.163 165.163zM512 497.536c9.131 0 16.512-7.381 16.512-16.512v-16.512l-0.341-1.792c26.709-3.243 47.531-24.747 49.92-51.541 0-9.131-7.424-16.512-16.555-16.512-9.088 0-16.512 7.381-16.512 16.512 0 10.411-16.043 20.309-33.024 20.309-16.213 0-29.909-9.813-29.909-21.589 0-11.819 13.653-18.773 36.224-28.8 25.259-11.221 56.661-25.173 56.661-60.16-1.493-26.283-20.907-48.085-46.891-52.565 0.213-0.683 0.341-1.365 0.427-2.048v-16.512c0-9.131-7.381-16.512-16.512-16.512s-16.512 7.381-16.512 16.512v16.512l0.341 1.792c-26.709 3.243-47.531 24.747-49.92 51.541 0 9.131 7.424 16.512 16.555 16.512 9.088 0 16.512-7.381 16.512-16.512 0-10.411 16.043-20.309 33.024-20.309 16.213 0 29.909 9.899 29.909 21.589 0 12.587-13.867 19.755-37.035 29.995-24.875 11.051-55.851 24.789-55.851 58.965 1.493 26.283 20.907 48.085 46.891 52.565-0.213 0.683-0.341 1.365-0.427 2.048v16.512c0 9.131 7.381 16.512 16.512 16.512zM627.627 761.813h-231.253c-9.088 0-16.512-7.381-16.512-16.512s7.424-16.512 16.512-16.512h231.253c9.088 0 16.512 7.381 16.512 16.512s-7.424 16.512-16.512 16.512zM669.269 926.933h-314.539l52.821-132.096h208.896l52.821 132.139z" />
<glyph unicode="&#xe901;" glyph-name="grey_ic-48-thumb" d="M653.355 845.781c-40.469 15.488-86.293 6.699-118.165-22.272l-3.755-3.563-129.6-129.024-3.627-3.755c-30.549-33.173-38.741-82.155-20.501-123.2 4.949-11.157 10.24-22.144 15.829-32.875l5.675-10.645 6.443-11.819-295.552-295.744c-1.771-2.133-2.901-4.736-3.264-7.467l-0.171-2.112v-144.725l0.085-2.197c0.64-7.019 6.059-12.587 12.928-13.547l2.091-0.149 146.88 0.064c6.997 0.64 12.587 6.059 13.547 12.928l0.149 2.091v77.547l76.715-0.021 2.197 0.085c6.997 0.64 12.587 6.059 13.525 12.928l0.149 2.091v77.525l78.912 0.064c7.723 0.704 13.696 7.211 13.696 15.040 0 7.637-5.675 13.952-13.035 14.933l-2.048 0.149-93.995-0.064c-6.997-0.64-12.587-6.080-13.547-12.928l-0.149-2.091v-77.547l-76.693 0.021-2.219-0.085c-6.997-0.64-12.587-6.059-13.525-12.928l-0.149-2.091v-77.547h-115.328v124.224l299.52 299.691c4.053 4.949 4.565 11.947 1.237 17.429-11.861 19.541-22.741 40.405-32.341 62.037-13.355 30.016-7.467 65.429 14.485 89.771l3.093 3.243 130.283 129.707 3.627 3.349c23.509 20.544 56.597 26.475 85.845 15.296 53.845-20.587 104.619-50.347 145.6-91.136 41.173-41.024 71.68-92.373 93.163-147.093 11.648-29.653 5.419-63.168-15.744-86.656l-3.115-3.285-131.883-131.264-3.712-3.456c-24.256-21.12-58.325-26.624-88.235-14.187-21.547 8.96-42.411 19.627-62.037 31.659-7.104 4.373-16.384 2.133-20.736-4.949-4.352-7.104-2.133-16.427 4.971-20.757 20.928-12.864 43.221-24.235 66.219-33.813 41.536-17.28 88.619-8.981 121.515 20.971l3.733 3.563 131.179 130.581 3.499 3.627c29.675 32.064 38.4 78.272 22.421 118.997-22.933 58.411-55.808 113.493-99.968 157.44-41.408 41.237-92.16 72.107-145.984 93.973l-10.133 3.968zM690.603 674.709c-19.285 0-34.923-15.637-34.923-34.944 0-19.285 15.637-34.923 34.923-34.923s34.923 15.637 34.923 34.923c0 19.307-15.637 34.944-34.923 34.944z" />
<glyph unicode="&#xe902;" glyph-name="ic-18-card-2" horiz-adv-x="1067" d="M830.592 766.592h-637.184c-44.203 0-79.232-35.456-79.232-79.659l-0.427-477.867c0-44.203 35.456-79.659 79.659-79.659h637.184c44.203 0 79.616 35.456 79.616 79.659v477.867c0 44.203-35.413 79.659-79.616 79.659zM830.592 209.067h-637.184v238.933h637.184v-238.933zM830.592 607.275h-637.184v79.659h637.184v-79.659z" />
<glyph unicode="&#xe903;" glyph-name="ic-18-cash-2" horiz-adv-x="1067" d="M765.44 375.595v289.621c0 39.808-32.597 72.405-72.448 72.405h-506.795c-39.851 0-72.405-32.597-72.405-72.405v-289.621c0-39.808 32.555-72.405 72.405-72.405h506.795c39.851 0 72.405 32.597 72.405 72.405zM692.992 375.595h-506.795v289.621h506.795v-289.621zM439.595 629.035c-60.075 0-108.587-48.555-108.587-108.629 0-60.117 48.512-108.587 108.587-108.587 60.117 0 108.587 48.469 108.587 108.587 0 60.075-48.469 108.587-108.587 108.587zM910.208 629.035v-398.251c0-39.808-32.555-72.405-72.405-72.405h-615.424v72.448h615.424v398.165h72.405z" />
<glyph unicode="&#xe904;" glyph-name="ic-18-flight" horiz-adv-x="1067" d="M910.208 288.725v79.616l-338.475 199.125v219.008c0 33.067-26.667 59.733-59.733 59.733s-59.733-26.667-59.733-59.733v-219.008l-338.475-199.125v-79.616l338.475 99.541v-219.008l-99.541-59.733v-59.733l159.275 39.808 159.275-39.808v59.733l-99.541 59.733v219.008l338.475-99.541z" />
<glyph unicode="&#xe905;" glyph-name="ic-18-lounge" horiz-adv-x="1067" d="M832 554.667v71.125c0 58.667-48 106.667-106.667 106.667h-426.667c-58.667 0-106.667-48-106.667-106.667v-71.125c-58.667 0-106.667-48-106.667-106.667v-177.792c0-58.667 48-106.667 106.667-106.667h640c58.667 0 106.667 48 106.667 106.667v177.792c0 58.667-48 106.667-106.667 106.667zM263.125 625.792c0 19.541 16 35.541 35.541 35.541h426.667c19.541 0 35.541-16 35.541-35.541v-98.859c-21.675-19.541-35.541-47.659-35.541-78.933v-71.125h-426.667v71.125c0 31.275-13.867 59.392-35.541 78.933v98.859zM867.541 270.208c0-19.541-16-35.541-35.541-35.541h-640c-19.541 0-35.541 16-35.541 35.541v177.792c0 19.541 16 35.541 35.541 35.541s35.541-16 35.541-35.541v-142.208h568.917v142.208c0 19.541 16 35.541 35.541 35.541s35.541-16 35.541-35.541v-177.792z" />
<glyph unicode="&#xe906;" glyph-name="ic-18-protection" horiz-adv-x="1067" d="M512 846.208l-325.803-144.768v-217.173c0-200.96 139.008-388.821 325.803-434.432 186.795 45.611 325.803 233.472 325.803 434.389v217.216l-325.803 144.768zM765.44 484.181c0-163.627-107.947-314.581-253.44-359.467-145.493 44.885-253.44 195.84-253.44 359.467v170.155l253.44 112.64 253.44-112.64v-170.155zM345.813 462.848l-50.987-51.029 144.811-144.811 289.621 289.579-51.029 51.413-238.592-238.549-93.781 93.397z" />
<glyph unicode="&#xe907;" glyph-name="ic-18-purchase-limit-2" horiz-adv-x="1067" d="M777.472 656.597h-75.861c0 104.661-84.907 189.611-189.611 189.611-104.661 0-189.611-84.907-189.611-189.611h-75.861c-41.728 0-75.861-34.133-75.861-75.904v-455.125c0-41.685 34.133-75.819 75.861-75.819h530.944c41.728 0 75.861 34.133 75.861 75.819v455.168c0 41.728-34.133 75.861-75.861 75.861zM512 770.389c62.976 0 113.792-50.859 113.792-113.792h-227.584c0 62.933 50.816 113.792 113.792 113.792zM777.472 125.611h-530.944v455.125h530.944v-455.125zM512 429.056c-62.976 0-113.792 50.773-113.792 113.749h-75.819c0-104.661 84.907-189.611 189.611-189.611 104.661 0 189.611 84.907 189.611 189.611h-75.819c0-62.933-50.816-113.749-113.792-113.749z" />
<glyph unicode="&#xe908;" glyph-name="ic-20-atm-2" horiz-adv-x="1067" d="M472.192 248.875h79.616v39.851h39.851c21.888 0 39.808 17.92 39.808 39.808v119.467c0 21.888-17.92 39.808-39.808 39.808h-119.467v39.851h159.275v79.616h-79.659v39.851h-79.616v-39.851h-39.851c-21.888 0-39.808-17.92-39.808-39.808v-119.467c0-21.888 17.92-39.808 39.808-39.808h119.467v-39.851h-159.275v-79.616h79.659v-39.851zM830.592 766.592h-637.184c-44.203 0-79.232-35.456-79.232-79.659l-0.427-477.867c0-44.203 35.456-79.659 79.659-79.659h637.184c44.203 0 79.616 35.456 79.616 79.659v477.867c0 44.203-35.413 79.659-79.616 79.659zM830.592 209.067h-637.184v477.867h637.184v-477.867z" />
<glyph unicode="&#xe909;" glyph-name="ic-24-alert" horiz-adv-x="1056" d="M544 704.416l321.28-555.072h-642.56l321.28 555.072zM544 874.656l-469.344-810.656h938.688l-469.344 810.656zM586.656 277.344h-85.312v-85.344h85.312v85.344zM586.656 533.344h-85.312v-170.688h85.312v170.688z" />
<glyph unicode="&#xe90a;" glyph-name="ic-24-arrow-back" d="M853.333 490.667h-519.253l238.507 238.507-60.587 60.16-341.333-341.333 341.333-341.333 60.16 60.16-238.080 238.507h519.253z" />
<glyph unicode="&#xe90b;" glyph-name="ic-24-arrow-back_next" horiz-adv-x="999" d="M499.512 768.512l-58.693-58.693 232.273-232.673h-506.58v-83.269h506.58l-232.273-232.673 58.693-58.693 333 333z" />
<glyph unicode="&#xe90c;" glyph-name="ic-24-card" d="M738.662 422.144c0-18.381 14.925-33.306 33.331-33.306 18.432 0 33.331 14.925 33.331 33.331v195.84h100.019c18.406 0 33.331 14.925 33.331 33.331v123.315c0 26.726-10.419 51.84-29.312 70.707-18.816 18.842-43.827 29.235-70.451 29.286h-520.243c-55.142 0-99.994-44.851-99.994-99.994v-484.992c-73.523 0-133.35-59.802-133.35-133.325v-1.664c0-73.523 59.827-133.35 133.35-133.35h586.65c73.523 0 133.35 59.827 133.35 133.35v1.664c0 73.523-59.827 133.325-133.35 133.325h-31.667l-0.819-0.051-0.845 0.051c-18.406 0-33.331-14.925-33.331-33.331v-168.346h-453.325v686.669c0 18.381 14.95 33.331 33.331 33.331h425.728c-3.686-10.419-5.734-21.632-5.734-33.331v-352.512zM805.325 222.976c36.762 0 66.688-29.875 66.688-66.637v-1.664c0-36.762-29.926-66.688-66.688-66.688v135.014zM152.013 154.675v1.664c0 36.762 29.901 66.662 66.662 66.662v-134.989c-36.762 0-66.662 29.901-66.662 66.662zM872.013 684.672h-66.688v89.984c0 18.381 14.95 33.331 33.331 33.331 8.909 0 17.28-3.456 23.578-9.754s9.779-14.669 9.779-23.552v-90.010zM672 588.006c0-18.432-14.925-33.331-33.331-33.331h-16.666c-18.432 0-33.331 14.925-33.331 33.331s14.925 33.331 33.331 33.331h16.64c18.432 0 33.357-14.925 33.357-33.331zM538.675 588.006c0-18.432-14.925-33.331-33.331-33.331h-120.013c-18.432 0-33.331 14.925-33.331 33.331s14.925 33.331 33.331 33.331h120.013c18.406 0 33.331-14.925 33.331-33.331zM672 454.656c0-18.406-14.925-33.331-33.331-33.331h-16.666c-18.432 0-33.331 14.925-33.331 33.331 0 18.432 14.925 33.331 33.331 33.331h16.64c18.432 0 33.357-14.899 33.357-33.331zM538.675 454.656c0-18.406-14.925-33.331-33.331-33.331h-120.013c-18.432 0-33.331 14.925-33.331 33.331 0 18.432 14.925 33.331 33.331 33.331h120.013c18.406 0 33.331-14.899 33.331-33.331zM672 321.331c0-18.432-14.925-33.331-33.331-33.331h-16.666c-18.432 0-33.331 14.925-33.331 33.331 0 18.432 14.925 33.331 33.331 33.331h16.64c18.432 0 33.357-14.925 33.357-33.331zM538.675 321.331c0-18.432-14.925-33.331-33.331-33.331h-120.013c-18.432 0-33.331 14.925-33.331 33.331 0 18.432 14.925 33.331 33.331 33.331h120.013c18.406 0 33.331-14.925 33.331-33.331z" />
<glyph unicode="&#xe90d;" glyph-name="ic-24-card_2" d="M905.344 378.795c18.389 0 33.323 15.232 33.323 34.048v197.675c0 75.093-59.819 136.149-133.333 136.149h-586.667c-73.515 0-133.333-61.099-133.333-136.149v-367.701c0-75.093 59.819-136.149 133.333-136.149h586.667c73.515 0 133.333 61.099 133.333 136.149 0 18.816-14.933 34.048-33.323 34.048-18.432 0-33.365-15.232-33.365-34.048 0-37.547-29.867-68.053-66.645-68.053h-586.667c-36.779 0-66.688 30.549-66.688 68.053v255.147h720v-85.12c0-18.773 14.933-34.048 33.365-34.048zM151.979 566.016v44.544c0 37.547 29.909 68.053 66.688 68.053h586.667c36.779 0 66.688-30.549 66.688-68.053v-44.501h-720z" />
<glyph unicode="&#xe90e;" glyph-name="ic-24-card_3" d="M737.587 575.232c8.013 0 13.875-2.611 17.638-7.859 3.738-5.248 4.48-11.878 2.125-20.122l-30.49-110.208c-2.125-7.731-6.656-14.234-13.389-19.482s-13.978-7.885-21.734-7.885h-246.528l-30.49-110.208h-54.861l45.466 164.326h54.861v-0.128h219.315l15.974 57.6h-274.15l14.874 53.99zM125.056 575.232l-61.568-221.875h219.418l61.594 221.926h54.861l-71.475-257.28c-2.995-10.88-12.979-18.509-24.243-18.509h-282.803c-7.731 0-13.491 2.637-17.229 7.859-3.763 5.274-4.608 11.776-2.381 19.507l68.966 248.422h54.861zM954.65 575.488l69.35-137.907-145.818-137.984 17.306 62.592-66.176-62.566 76.595 275.917 31.411-62.464 17.331 62.464zM859.93 576l-76.237-275.277h-54.835l76.211 275.277h54.861z" />
<glyph unicode="&#xe90f;" glyph-name="ic-24-date" d="M511.573 874.667c235.947 0 427.093-191.147 427.093-426.667s-191.147-426.667-427.093-426.667c-235.52 0-426.24 191.147-426.24 426.667s190.72 426.667 426.24 426.667zM512 789.333c-188.587 0-341.333-152.747-341.333-341.333s152.747-341.333 341.333-341.333 341.333 152.747 341.333 341.333-152.747 341.333-341.333 341.333zM533.333 661.333v-224l192-113.92-32-52.48-224 134.4v256h64z" />
<glyph unicode="&#xe910;" glyph-name="ic-24-date-2" d="M810.667 789.333h-42.667v85.333h-85.333v-85.333h-341.333v85.333h-85.333v-85.333h-42.667c-47.36 0-84.907-38.4-84.907-85.333l-0.427-597.333c0-46.933 37.973-85.333 85.333-85.333h597.333c46.933 0 85.333 38.4 85.333 85.333v597.333c0 46.933-38.4 85.333-85.333 85.333zM810.667 106.667h-597.333v426.667h597.333v-426.667zM810.667 618.667h-597.333v85.333h597.333v-85.333zM512 405.333h213.333v-213.333h-213.333v213.333z" />
<glyph unicode="&#xe911;" glyph-name="ic-24-file-download" d="M810.667 149.333v-85.333h-597.333v85.333h597.333zM554.667 832l-0.043-434.048 153.216 152.875 60.16-60.16-256-256-256 256 60.16 60.16 153.131-152.789 0.043 433.963h85.333z" />
<glyph unicode="&#xe912;" glyph-name="ic-24-file-upload" d="M810.667 149.333v-85.333h-597.333v85.333h597.333zM512 832l256-256-60.16-60.16-153.131 152.789-0.043-433.963h-85.333l0.043 434.048-153.216-152.875-60.16 60.16 256 256z" />
<glyph unicode="&#xe913;" glyph-name="ic-24-gift" d="M463.744 689.6c197.184 143.552 474.912 0.128 474.912-250.304 0-168.384-133.504-307.040-300.672-307.040-63.168 0-123.68 19.936-174.24 56.768l-353.408-0.032c-13.824 0-24.992 11.392-24.992 25.504 0 12.928 9.408 23.616 21.6 25.28l3.392 0.256h298.88c-38.080 45.44-62.528 101.632-69.696 161.696l-1.216 12.064h-145.024c-13.792 0-24.992 11.424-24.992 25.504 0 12.928 9.408 23.616 21.6 25.28l3.392 0.256h145.056c4.864 60.64 27.328 117.76 63.52 164.544l7.392 9.216h-123.328c-13.792 0-24.992 11.424-24.992 25.536 0 12.928 9.408 23.584 21.6 25.28l3.392 0.224 177.824-0.032zM888.672 439.296c0 225.152-264.64 339.584-423.264 185.696-50.368-48.864-78.112-114.816-78.112-185.696 0-142.656 113.248-256 250.688-256 139.008 0 250.688 115.2 250.688 256zM640 302.944c14.144 0 25.6-11.488 25.6-25.6 0-14.144-11.456-25.6-25.6-25.6s-25.6 11.456-25.6 25.6c0 14.112 11.456 25.6 25.6 25.6zM708.352 534.208c9.76 10.24 25.536 10.24 35.264 0 8.768-9.216 9.664-23.552 2.656-33.792l-2.656-3.232-80.16-84.16c-8.864-9.312-22.72-10.176-32.48-2.56l-2.784 2.56-57.696 60.544c-9.728 10.24-9.728 26.784 0 37.024 8.864 9.28 22.72 10.144 32.48 2.528l2.784-2.56 40.064-42.016 62.528 65.664zM469.44 468.128c15.136 2.528 29.44-7.968 31.872-23.36 2.464-15.456-7.84-29.984-22.976-32.48s-29.44 8-31.872 23.392c-2.464 15.424 7.84 29.952 22.976 32.448zM793.6 473.6c14.144 0 25.6-11.456 25.6-25.6s-11.456-25.6-25.6-25.6c-14.144 0-25.6 11.456-25.6 25.6s11.456 25.6 25.6 25.6zM640 627.2c14.144 0 25.6-11.456 25.6-25.6s-11.456-25.6-25.6-25.6c-14.144 0-25.6 11.456-25.6 25.6s11.456 25.6 25.6 25.6z" />
<glyph unicode="&#xe914;" glyph-name="ic-24-gift-2" d="M845.12 578.336l-86.368 30.432c31.232 24.992 44.576 64.64 35.008 102.304-18.784 74.016-111.936 102.080-170.784 51.712l-59.616-51.104-11.808 76.576c-11.648 75.392-101.76 111.68-165.12 66.752-31.712-22.464-48.576-61.184-41.088-100.48l-81.44 28.672c-40.032 14.144-84.48-5.952-99.072-44.736l-35.264-93.792c-4.864-12.96 2.016-27.296 15.392-32l402.784-142.016h-388.928c-14.208 0-25.76-11.168-25.76-24.96v-349.472c0-41.28 34.688-74.88 77.312-74.88h515.424c42.624 0 77.312 33.6 77.312 74.88v284.416l19.936-7.040c13.312-4.704 28.16 1.92 33.024 14.912l35.264 93.824c14.592 38.816-6.144 81.888-46.208 96zM390.752 71.264h-180.384c-14.208 0-25.76 11.2-25.76 24.96v324.512h206.144v-349.472zM493.856 71.264h-51.52v349.472h51.52v-349.472zM657.12 725.344c29.888 25.632 77.088 11.264 86.592-26.176 10.144-39.936-29.728-74.56-69.6-60.544-33.92 11.968-49.824 17.6-83.808 29.536l66.816 57.216zM416.832 814.72c32.224 22.848 77.856 4.32 83.744-33.824l13.216-85.76-83.776 29.568c-39.904 14.080-47.456 65.76-13.184 90.016zM428.992 565.664l-242.176 85.376 26.432 70.4c4.864 12.896 19.68 19.584 33.024 14.88l217.952-76.8-35.232-93.856zM525.856 531.52l-48.448 17.056 35.264 93.824 48.448-17.056-35.264-93.824zM751.552 96.224c0-13.76-11.52-24.96-25.76-24.96h-180.384v349.472h143.936l62.208-21.92v-302.592zM842.88 499.424l-26.432-70.368-242.176 85.376 35.264 93.824 217.952-76.8c13.344-4.736 20.256-19.104 15.392-32z" />
<glyph unicode="&#xe915;" glyph-name="ic-24-health" d="M938.667 591.531c0-115.883-83.115-213.035-145.579-276.011-6.528-6.571-15.147-9.856-23.765-9.856-8.448 0-16.896 3.157-23.381 9.515-13.141 12.8-13.269 33.792-0.341 46.805 86.229 86.912 126.379 159.872 126.379 229.547 0 102.613-67.157 174.251-163.328 174.251-62.507 0-108.672-23.339-137.216-69.419-22.613-36.565-26.197-74.667-26.197-75.051-1.365-17.237-15.829-30.464-33.28-30.464-17.365 0-31.872 13.397-33.195 30.635 0 0.213-3.541 38.315-26.197 74.88-28.544 46.080-74.667 69.419-137.216 69.419-96.171 0-163.371-71.68-163.371-174.251 0-46.251 17.707-93.824 53.973-145.195h79.147l55.296 112.213c5.675 11.52 17.621 18.816 30.549 18.56s24.576-7.893 29.867-19.627l68.053-151.595 43.392 85.205c5.632 11.051 16.981 18.048 29.44 18.133h0.299c12.373 0 23.723-6.827 29.525-17.664l23.936-45.227h74.88c18.389 0 33.323-14.805 33.323-33.109 0-18.261-14.933-33.109-33.323-33.109h-95.019c-12.373 0-23.723 6.827-29.483 17.707l-3.243 6.101-45.824-90.027c-5.717-11.179-17.237-18.176-29.781-18.176h-0.811c-12.843 0.341-24.363 7.936-29.611 19.627l-67.627 150.528-33.109-67.2c-5.589-11.349-17.195-18.56-29.952-18.56h-187.221c-18.389 0-33.323 14.848-33.323 33.109 0 18.304 14.933 33.109 33.323 33.109h8.448c-28.032 49.28-41.771 97.152-41.771 145.195 0 70.315 23.253 130.859 67.2 175.104 41.941 42.155 99.755 65.365 162.816 65.365 110.208 0 167.211-56.32 195.584-103.595l1.067-1.707 1.067 1.707c28.373 47.275 85.376 103.595 195.584 103.595 63.061 0 120.875-23.211 162.816-65.365 43.947-44.288 67.2-104.789 67.2-175.104zM628.352 254.805l-0.768-0.683c-42.368-36.907-82.859-72.235-115.584-106.837-32.725 34.603-73.216 69.931-115.627 106.837-22.528 19.627-45.867 39.979-68.48 60.629-13.568 12.373-34.645 11.52-47.104-1.963-12.459-13.44-11.563-34.389 1.963-46.763 23.211-21.163 46.848-41.771 69.675-61.653 52.224-45.483 101.547-88.491 133.589-128l0.128-0.171 0.427-0.512 1.92-2.048 0.085-0.085c0.768-0.768 1.621-1.493 2.475-2.176l0.043-0.085h0.043l2.261-1.707 0.171-0.043c0.725-0.512 1.493-0.981 2.261-1.365l0.171-0.128c0.725-0.427 1.493-0.768 2.261-1.109l0.555-0.256 1.92-0.725 0.512-0.171 2.133-0.683 0.853-0.171 1.792-0.427 0.725-0.085c0.683-0.128 1.408-0.213 2.133-0.256l0.725-0.085 2.304-0.085h0.171l2.304 0.085 0.768 0.085 2.133 0.256 0.683 0.128 1.792 0.341 0.853 0.213 2.133 0.683c0.213 0 0.384 0.128 0.555 0.171l1.877 0.725 0.597 0.256 2.219 1.109 0.213 0.128 2.219 1.323 0.171 0.128c0.768 0.512 1.536 1.067 2.261 1.664h0.043l0.085 0.085c0.853 0.683 1.664 1.408 2.432 2.133l0.128 0.171c0.64 0.64 1.28 1.28 1.877 2.005l0.427 0.512 0.128 0.128c32.043 39.552 81.365 82.517 133.547 128l0.811 0.683c13.824 12.075 15.189 32.981 3.072 46.72-12.16 13.739-33.237 15.104-47.061 3.072z" />
<glyph unicode="&#xe916;" glyph-name="ic-24-inr" d="M667.187 106.675v5.632l-231.142 268.186c68.454 0 121.907 14.080 160.358 42.189 38.451 28.134 60.467 70.016 66.099 125.645h71.27l21.555 74.086h-94.208c-5.325 36.582-17.997 67.533-37.99 92.851h110.643l21.555 74.061h-433.664l-22.067-74.061h131.763c76.877-2.509 122.829-33.459 137.83-92.851h-248.934l-21.555-74.086h271.411c-6.554-28.749-22.016-51.482-46.413-68.198-24.397-16.742-56.115-25.242-95.181-25.574h-116.736l0.461-58.598 248.499-289.28h106.419z" />
<glyph unicode="&#xe917;" glyph-name="ic-24-inr-2" d="M512 874.656c235.264 0 426.656-191.392 426.656-426.656s-191.392-426.656-426.656-426.656-426.656 191.392-426.656 426.656 191.392 426.656 426.656 426.656zM512 809.056c-199.040-0.032-361.024-162.016-361.024-361.056s161.952-361.024 361.024-361.024c199.040 0 361.024 161.952 361.024 361.024 0 199.040-161.952 361.024-361.024 361.024zM696.704 710.752v-45.12h-110.976c28.256-19.2 46.88-47.2 54.048-83.936l1.44-8.64h55.488v-45.12h-54.72c-7.84-82.848-68.96-134.528-169.664-137.6l-9.568-0.128h-27.36l221.248-199.776h-93.28l-220.48 199.776v60.192h111.392c66.496 0 103.968 24.192 114.080 71.264l1.184 6.24h-226.656v45.152h226.656c-7.776 49.856-42.56 75.424-107.040 77.376l-8.224 0.128h-111.36v60.192h353.792z" />
<glyph unicode="&#xe918;" glyph-name="ic-24-money" d="M844.245 455.765c-26.709 13.355-61.611 20.736-98.261 20.736-36.608 0-71.509-7.381-98.261-20.736-33.365-16.683-51.712-41.301-51.712-69.248l0.043-2.688-0.043-1.835v-37.077c-25.685 11.392-57.173 17.579-90.027 17.579-36.608 0-71.509-7.381-98.261-20.736-33.365-16.64-51.712-41.259-51.712-69.248v-118.528c0-10.325 2.517-20.181 7.339-29.355-108.501 7.68-175.36 85.205-175.36 204.885 0 83.2 44.928 160.299 133.504 229.248l2.859 2.219c-45.653-66.475-68.864-134.699-68.864-202.965 0-16.597 13.44-30.037 29.995-30.037 16.597 0 30.037 13.44 30.037 30.037 0 92.885 53.845 186.88 160.085 279.296l1.365 1.195h90.581c19.968-8.533 96.725-43.477 162.944-103.125 12.288-11.093 31.275-10.112 42.368 2.176 11.093 12.331 10.112 31.317-2.219 42.368-59.307 53.461-124.587 88.32-160 105.003l40.277 103.168c1.365 3.456 2.091 7.168 2.091 10.923v2.987c0 9.813-4.864 19.072-12.971 24.661-8.107 5.632-18.432 6.869-27.648 3.413-67.584-25.6-133.248-25.6-200.789 0-9.216 3.456-19.541 2.219-27.648-3.413-8.107-5.547-12.971-14.805-12.971-24.661v-2.987c0-3.755 0.725-7.467 2.091-10.923l40.277-103.168c-28.971-13.653-78.080-39.552-127.488-77.824-45.141-34.987-81.237-73.088-107.349-113.408-33.536-51.755-50.517-107.008-50.517-164.181 0-78.507 23.765-144.939 68.693-192.213 43.904-46.123 105.003-71.467 176.768-73.216h137.557c34.773 0.597 67.712 7.893 93.227 20.651 8.192 4.096 15.445 8.661 21.76 13.611 6.315-4.992 13.568-9.515 21.76-13.611 26.709-13.355 61.611-20.736 98.219-20.736 36.651 0 71.552 7.381 98.261 20.736 33.365 16.683 51.755 41.259 51.755 69.248v232.533c0 27.947-18.347 52.565-51.755 69.248zM574.379 757.035l-22.869-58.539h-79.019l-22.869 58.539c41.515-7.979 83.2-7.979 124.757 0zM577.451 138.368c-18.304-9.088-44.245-14.336-71.253-14.379h-0.427c-27.008 0-52.907 5.291-71.211 14.421-15.36 7.68-18.56 14.549-18.56 15.573v45.44c25.472-10.923 57.045-16.939 90.027-16.939h3.328c16.555 0.213 29.867 13.824 29.653 30.379s-13.824 29.867-30.379 29.653h-2.645c-27.093 0-53.12 5.248-71.424 14.379-15.36 7.68-18.56 14.549-18.56 15.616 0 1.024 3.243 7.936 18.56 15.573 18.347 9.173 44.373 14.421 71.424 14.421 26.795 0 52.693-5.461 71.083-14.933 14.464-7.509 18.944-14.763 18.944-16.555v-117.035c0-1.024-3.243-7.893-18.56-15.573zM836.011 153.984c0-1.024-3.243-7.893-18.56-15.573-18.347-9.173-44.373-14.421-71.467-14.421s-53.12 5.248-71.424 14.421c-15.36 7.68-18.56 14.549-18.56 15.573v45.44c25.472-10.923 57.045-16.939 90.027-16.939h3.371c16.555 0.256 29.824 13.867 29.611 30.421-0.213 16.427-13.653 29.611-29.995 29.611h-2.987c-27.136 0-53.163 5.248-71.467 14.379-15.36 7.68-18.56 14.549-18.56 15.616v40.917c25.472-10.965 57.045-16.939 90.027-16.939h3.371c16.555 0.256 29.824 13.867 29.611 30.421s-13.781 29.867-30.421 29.611h-2.56c-27.136 0-53.163 5.205-71.467 14.379-15.36 7.68-18.56 14.549-18.56 15.616 0 1.024 3.243 7.893 18.56 15.573 18.347 9.173 44.373 14.421 71.424 14.421 27.093 0 53.163-5.248 71.467-14.421 15.317-7.68 18.56-14.549 18.56-15.573v-232.533z" />
<glyph unicode="&#xe919;" glyph-name="ic-24-radio-on" d="M512 874.667c235.52 0 426.667-191.147 426.667-426.667s-191.147-426.667-426.667-426.667-426.667 191.147-426.667 426.667 191.147 426.667 426.667 426.667zM512 789.333c-188.16 0-341.333-153.173-341.333-341.333s153.173-341.333 341.333-341.333 341.333 153.173 341.333 341.333-153.173 341.333-341.333 341.333zM512 661.333c117.589 0 213.333-95.744 213.333-213.333s-95.744-213.333-213.333-213.333-213.333 95.744-213.333 213.333 95.744 213.333 213.333 213.333z" />
<glyph unicode="&#xe91a;" glyph-name="ic-24-radio-on_01" d="M512 874.667c235.52 0 426.667-191.147 426.667-426.667s-191.147-426.667-426.667-426.667-426.667 191.147-426.667 426.667 191.147 426.667 426.667 426.667zM512 789.333c-188.16 0-341.333-153.173-341.333-341.333s153.173-341.333 341.333-341.333 341.333 153.173 341.333 341.333-153.173 341.333-341.333 341.333zM512 661.333c117.589 0 213.333-95.744 213.333-213.333s-95.744-213.333-213.333-213.333-213.333 95.744-213.333 213.333 95.744 213.333 213.333 213.333z" />
<glyph unicode="&#xe91b;" glyph-name="ic-24-star" d="M512 223.147l263.68-159.147-69.973 299.947 232.96 201.813-306.773 26.027-119.893 282.88-119.893-282.88-306.773-26.027 232.96-201.813-69.973-299.947z" />
<glyph unicode="&#xe91c;" glyph-name="ic-24-star_6" d="M512 223.147l263.68-159.147-69.973 299.947 232.96 201.813-306.773 26.027-119.893 282.88-119.893-282.88-306.773-26.027 232.96-201.813-69.973-299.947z" />
<glyph unicode="&#xe91d;" glyph-name="ic-48-connectivity" d="M524.8 311.467c14.144 0 25.6-11.456 25.6-25.6s-11.456-25.6-25.6-25.6c-14.144 0-25.6 11.456-25.6 25.6s11.456 25.6 25.6 25.6zM338.88 490.283c46.549 49.771 109.547 77.184 177.387 77.184s130.837-27.413 177.387-77.184c9.685-10.347 25.92-10.923 36.309-1.28 10.368 9.643 10.944 25.835 1.28 36.181-56.384 60.288-132.736 93.483-214.976 93.483-82.261 0-158.592-33.195-214.976-93.483-9.664-10.347-9.088-26.539 1.28-36.181 4.949-4.587 11.243-6.869 17.493-6.869 6.891 0 13.76 2.731 18.816 8.149zM389.717 405.056c32.576 35.584 74.496 55.168 118.016 55.168s85.44-19.584 118.037-55.168c10.027-10.965 26.389-11.008 36.48-0.107 10.112 10.923 10.155 28.651 0.107 39.616-42.347 46.229-97.28 71.701-154.624 71.701-57.387 0-112.277-25.472-154.624-71.68-10.048-10.987-10.005-28.736 0.107-39.637 5.035-5.44 11.605-8.149 18.197-8.149 6.613 0 13.248 2.773 18.304 8.256zM594.219 336.448c9.856 10.539 9.835 27.605 0 38.123-22.677 24.235-55.531 39.296-85.717 39.296h-1.195c-30.4 0-63.381-15.061-86.059-39.296-9.835-10.517-9.856-27.584 0-38.123 9.813-10.539 25.771-10.56 35.627-0.021 13.355 14.293 33.152 23.509 50.432 23.509h1.195c17.067 0 36.736-9.237 50.091-23.509 4.907-5.269 11.371-7.893 17.813-7.893s12.907 2.645 17.813 7.893zM840.533 213.333c0 14.72-11.349 26.667-25.344 26.667-13.973 0-25.323-11.947-25.323-26.667 0-29.397-22.741-53.333-50.667-53.333h-445.867c-27.947 0-50.667 23.936-50.667 53.333v469.333c0 29.397 22.741 53.333 50.667 53.333h445.867c27.947 0 50.667-23.936 50.667-53.333v-336c0-14.72 11.349-26.667 25.344-26.667 13.973 0 25.323 11.947 25.323 26.667v336c0 58.816-45.44 106.667-101.333 106.667h-445.867c-55.893 0-101.333-47.851-101.333-106.667v-469.333c0-58.816 45.44-106.667 101.333-106.667h445.867c55.893 0 101.333 47.851 101.333 106.667z" />
<glyph unicode="&#xe91e;" glyph-name="ic-48-email-active" d="M486.059 865.749c15.232 11.883 36.608 11.883 51.861 0l61.717-47.915h154.133c23.573 0 42.667-19.115 42.667-42.667v-110.101l136.789-106.24c0.235-0.213 0.341-0.469 0.555-0.661 0.725-0.661 1.344-1.408 1.899-2.219 0.555-0.661 1.024-1.408 1.429-2.176 0.341-0.789 0.597-1.6 0.811-2.432 0.299-0.939 0.491-1.92 0.576-2.901 0-0.299 0.171-0.555 0.171-0.853v-483.584c0-9.045-2.944-17.835-8.341-25.109-0.085-0.128-0.107-0.256-0.213-0.384-0.085-0.149-0.256-0.192-0.384-0.341-8-10.56-20.48-16.789-33.728-16.832h-768.043c-13.205 0.064-25.621 6.251-33.621 16.768-0.149 0.149-0.363 0.277-0.448 0.405-0.107 0.107-0.128 0.256-0.213 0.384-5.397 7.253-8.32 16.064-8.341 25.109v483.627c0 0.299 0.171 0.555 0.171 0.853 0.085 0.96 0.277 1.92 0.576 2.859 0.213 0.832 0.469 1.643 0.811 2.432 0.405 0.768 0.875 1.493 1.429 2.176 0.555 0.811 1.173 1.557 1.899 2.219 0.213 0.192 0.32 0.469 0.555 0.661l136.747 106.24v110.080c0 23.573 19.093 42.667 42.667 42.667h154.133zM520.405 338.667c-4.971 3.947-11.989 3.947-16.96 0l-371.904-288.896h760.875zM753.771 789.376h-483.584c-7.851 0-14.229-6.357-14.229-14.208v-256.021c0-7.851-6.357-14.229-14.208-14.229-7.872 0-14.229 6.379-14.229 14.229v109.909l-100.053-77.76 236.779-183.872c6.208-4.821 7.339-13.76 2.517-19.968-4.8-6.187-13.739-7.339-19.947-2.517l-233.109 180.992v-453.973l372.331 289.152c15.232 11.883 36.608 11.883 51.861 0l372.309-289.152v453.973l-233.493-181.312c-4.011-3.179-9.429-3.968-14.165-2.048-4.757 1.92-8.107 6.229-8.789 11.307-0.661 5.077 1.429 10.133 5.504 13.227l237.205 184.192-100.053 77.76v-109.909c0-7.851-6.379-14.229-14.229-14.229s-14.229 6.379-14.229 14.229v256c0 7.872-6.357 14.229-14.208 14.229zM503.104 768c93.291 0 168.896-75.605 168.896-168.896v-56.299c0.085-29.909-23.296-54.656-53.184-56.235-29.867-1.579-55.744 20.544-58.795 50.325-27.861-25.557-69.291-29.504-101.461-9.643-32.149 19.84-47.211 58.667-36.843 94.997 10.347 36.352 43.605 61.376 81.387 61.312 7.787 0 14.080-6.315 14.080-14.080 0-7.787-6.293-14.080-14.080-14.080-31.083 0-56.299-25.195-56.299-56.299 0-31.083 25.216-56.299 56.32-56.299 31.083 0 56.277 25.216 56.277 56.32 0 7.765 6.315 14.059 14.080 14.059s14.080-6.293 14.080-14.080v-56.299c0-15.531 12.587-28.16 28.139-28.16s28.16 12.629 28.16 28.16v56.32c0 77.717-63.019 140.715-140.757 140.715-77.717 0-140.736-62.997-140.736-140.736 0-77.717 63.019-140.736 140.736-140.736 7.787 0 14.080-6.293 14.080-14.080 0-7.765-6.293-14.080-14.080-14.080-93.269 0-168.875 75.627-168.875 168.896 0 93.291 75.584 168.896 168.875 168.896zM520.405 843.307c-4.971 3.947-11.989 3.947-16.96 0l-32.725-25.472h82.496z" />
<glyph unicode="&#xe91f;" glyph-name="ic-48-fund-active" d="M469.803 874.667c45.269 0 87.851-17.984 119.851-50.667 12.864-13.12 23.488-28.096 31.595-44.523 3.093-6.251 0.64-13.867-5.504-17.003-6.123-3.157-13.589-0.64-16.683 5.611-6.912 14.016-16 26.795-26.965 37.995-27.307 27.883-63.659 43.243-102.293 43.243s-74.965-15.36-102.293-43.243c-27.307-27.883-42.368-64.939-42.368-104.384 0-39.424 15.040-76.48 42.368-104.363 15.296-15.616 33.216-26.965 52.309-34.112 33.109 4.757 66.859 4.757 99.968 0 19.093 7.147 37.013 18.496 52.309 34.112 25.6 26.133 40.597 60.843 42.24 97.707 0.299 7.019 6.123 12.459 12.949 12.117 6.848-0.32 12.16-6.251 11.84-13.227-0.981-22.443-6.208-44.16-15.189-64.192l2.816-0.576c7.68-1.707 15.296-3.605 22.763-5.653 2.283 1.728 4.736 3.243 7.36 4.48 86.4 40.341 117.867 42.581 130.709 39.893l0.96-0.213 0.427-0.107 0.853-0.256 0.427-0.107 0.747-0.256 1.024-0.384 0.299-0.149 0.875-0.384 0.512-0.256 0.917-0.469 0.213-0.107c9.813-5.248 15.808-18.069 18.197-38.976l0.235-2.304 0.213-2.389 0.213-2.432 0.128-2.517 0.213-3.883 0.064-2.667 0.064-2.731c0.363-22.571-2.432-48.704-7.595-71.787 8.064-8.427 15.445-17.28 22.080-26.56 14.549-20.352 25.664-42.795 33.024-66.688 1.387-4.459 4.693-7.979 8.896-9.557l0.555-0.213 34.944-11.413c19.2-6.272 32.213-24.149 32.597-44.672v-60.032c0-20.587-12.715-38.677-31.744-45.312l-0.853-0.277-56.32-18.411c-3.115-1.024-5.803-3.264-7.531-6.336-23.851-42.027-60.565-76.821-109.184-103.467l-2.005-1.067-17.557-94.891c-2.667-14.4-14.869-24.917-29.163-25.28h-59.371c-14.357 0-26.752 10.283-29.739 24.533l-0.149 0.725-9.045 48.789c-24.917-3.584-50.496-5.419-76.096-5.419-17.323 0-34.475 0.853-51.093 2.517l-3.84 0.384-8.576-46.272c-2.667-14.379-14.869-24.896-29.163-25.259h-59.392c-14.336 0-26.731 10.283-29.717 24.533l-0.149 0.725-16.875 89.493c-40.917 22.72-73.024 52.928-95.424 89.835-24.32 40.043-36.651 87.083-36.651 139.861 0 5.888 0.171 11.733 0.469 17.472l0.192 3.413c-2.155 0.213-4.416 0.448-6.763 0.725-2.325-5.184-5.333-10.197-9.067-14.933-11.499-14.72-23.211-23.616-33.984-28.864l-1.493-0.725-2.219-0.96-1.472-0.597c-1.216-0.491-2.411-0.917-3.584-1.323l-1.408-0.427c-0.469-0.171-0.917-0.299-1.387-0.427l-1.365-0.384-1.365-0.341-1.323-0.299-0.64-0.149-1.323-0.256-1.28-0.213-1.259-0.213-0.619-0.085-1.216-0.171c-0.213 0-0.427-0.043-0.597-0.064l-1.195-0.107-0.576-0.064-1.152-0.085-2.752-0.107h-1.067c-0.96 0-1.92 0-2.773 0.064-6.827 0.32-12.203 5.845-12.48 12.715v0.576c0 7.040 5.376 12.715 12.203 13.227l1.664 0.064 1.173 0.085 1.237 0.085 1.237 0.149 1.941 0.256 1.344 0.213 1.344 0.277c11.179 2.261 24.896 8.491 36.971 23.936 0.875 1.131 1.707 2.261 2.411 3.371l-5.184 1.216-2.496 0.64c-22.101 5.888-35.691 14.613-41.323 26.453l-0.192 0.405-0.363 0.811-0.171 0.427-0.341 0.875-0.32 0.917c-0.256 0.768-0.469 1.579-0.683 2.411l-0.213 1.003c-1.515 7.595-0.341 17.643 8.491 29.568 8.171 11.008 19.947 16.363 32.32 14.677 15.701-2.133 30.507-15.317 37.717-33.6 3.264-8.277 4.757-16.832 4.544-25.28l3.584-0.341 0.341 2.347c11.733 77.291 52.48 138.197 119.595 177.835 5.952 3.499 13.547 1.429 16.981-4.629 3.413-6.059 1.408-13.824-4.544-17.323-34.965-20.629-62.123-47.68-80.704-80.405-19.925-35.051-30.037-76.736-30.037-123.84 0-93.269 41.899-165.397 121.131-208.555 5.056-2.752 8.619-7.509 9.877-13.163l0.149-0.661 17.365-92.053c0.469-2.603 2.581-4.48 5.12-4.651l0.363-0.021h58.645c2.56 0 4.757 1.771 5.397 4.267l0.085 0.363 9.493 51.179c1.899 10.24 11.349 17.301 21.525 16.107 18.347-2.176 37.504-3.285 56.917-3.285 26.069 0 52.096 1.984 77.355 5.867 10.283 1.6 19.861-5.141 22.080-15.424l0.107-0.576 9.984-53.867c0.491-2.56 2.603-4.437 5.12-4.608l0.363-0.021h58.667c2.539 0 4.757 1.771 5.376 4.267l0.085 0.363 18.048 97.451c1.109 6.059 4.843 11.157 10.197 13.995 46.507 24.661 81.28 56.96 103.403 95.979 4.693 8.235 11.947 14.421 20.565 17.493l0.896 0.299 56.32 18.389c8.96 2.944 15.061 11.243 15.317 20.779v59.819c0 9.6-5.867 18.048-14.699 21.227l-0.619 0.213-34.944 11.413c-12.16 3.968-21.717 13.803-25.557 26.283-6.549 21.269-16.448 41.237-29.419 59.349-3.2 4.48-6.571 8.832-10.155 13.099-7.744-21.333-17.536-35.563-29.205-42.304-10.304-5.973-24.363-9.344-39.616-9.344-20.245 0-42.603 5.973-61.12 19.797-15.701 11.733-26.795 27.627-32.939 47.232-6.827 21.824-7.211 47.765-1.152 77.099l0.384 1.664c-4.395 1.109-8.832 2.176-13.291 3.157-3.349 0.747-6.763 1.451-10.176 2.133-6.272-9.685-13.483-18.773-21.653-27.115-8.683-8.875-18.091-16.576-28.032-23.104l-1.877-1.216c7.723-2.048 15.381-4.352 22.955-6.933 6.507-2.219 10.027-9.387 7.851-16.043-1.749-5.291-6.592-8.661-11.776-8.661-1.301 0-2.645 0.213-3.947 0.661-67.712 23.104-142.315 23.104-210.048 0-6.507-2.219-13.547 1.365-15.723 8-2.176 6.656 1.344 13.824 7.851 16.043 6.485 2.219 13.056 4.224 19.648 6.037l3.307 0.896c-10.624 6.784-20.693 14.891-29.909 24.32-32 32.661-49.643 76.096-49.643 122.304 0 46.187 17.621 89.621 49.643 122.283 32 32.683 74.581 50.667 119.851 50.667zM789.504 423.147c6.869 0 12.416-5.675 12.416-12.672 0-22.827-18.219-41.429-40.597-41.429-22.4 0-40.619 18.581-40.619 41.429 0 6.997 5.568 12.672 12.437 12.672 6.677 0 12.139-5.397 12.395-12.16v-0.512c0-8.875 7.083-16.085 15.787-16.085 8.512 0 15.467 6.912 15.765 15.531v0.555c0 6.997 5.547 12.672 12.416 12.672zM131.861 445.973c-2.133 0-4.949-0.811-7.979-4.928l-0.235-0.32-0.512-0.704-0.768-1.152-0.512-0.853c-1.408-2.389-2.539-5.184-1.664-7.040 1.856-3.84 7.893-7.381 16.469-10.368l1.579-0.533 0.811-0.277 1.685-0.512 1.707-0.512 0.853-0.235 3.627-0.981 0.939-0.213 1.899-0.469 1.92-0.427 1.963-0.427c-0.299 5.227-1.6 9.408-2.603 11.947-4.224 10.752-12.224 17.152-17.92 17.92-0.405 0.064-0.811 0.107-1.28 0.107zM778.539 643.477h-0.832l-0.875-0.064-0.939-0.043-0.981-0.085-1.067-0.107-1.067-0.128-0.576-0.085-1.195-0.171-1.237-0.213-1.28-0.213-1.365-0.256-1.387-0.277-1.472-0.299-1.515-0.341-1.579-0.363-3.328-0.832-1.728-0.448-2.731-0.747-1.877-0.533-1.963-0.576-1.984-0.597-4.203-1.301-3.285-1.067-3.413-1.152-2.347-0.811-2.432-0.853-2.475-0.853-2.517-0.939-3.925-1.451-2.667-1.024-4.139-1.579-2.837-1.109-2.901-1.173-4.459-1.792-4.587-1.92-3.136-1.301-3.2-1.365-4.907-2.133-3.371-1.451-3.413-1.515-3.477-1.557-5.333-2.432-7.339-3.371c-4.203-1.984-7.296-5.696-8.384-10.027l-0.128-0.576c-9.408-45.568-0.96-79.68 24.448-98.645 17.899-13.355 39.957-16.491 56.555-14.208l1.6 0.213 1.536 0.277 1.515 0.32c4.992 1.067 9.301 2.624 12.629 4.544 2.304 1.323 4.608 3.563 6.869 6.571l0.789 1.109c0.277 0.363 0.533 0.768 0.789 1.152l0.789 1.216c0.533 0.853 1.045 1.707 1.557 2.624l0.768 1.408 0.768 1.451 0.363 0.747 0.768 1.557 0.725 1.579 0.384 0.832 0.725 1.664 0.725 1.707 0.704 1.792 0.341 0.896 0.704 1.856 0.683 1.877 0.683 1.941 0.661 1.984 0.32 1.003 0.64 2.048 0.341 1.045 0.64 2.091 0.299 1.067 0.597 2.176 0.597 2.197 0.576 2.24 0.277 1.131 0.576 2.283 0.256 1.152 1.067 4.693 0.256 1.216 0.491 2.411 0.469 2.432 0.448 2.475 0.448 2.496 0.213 1.237 0.427 2.539 0.576 3.84 0.363 2.56 0.171 1.301 0.341 2.624 0.299 2.624 0.299 2.709 0.277 2.667 0.256 2.624 0.213 2.56 0.192 2.539 0.171 2.475 0.149 2.411 0.107 2.368 0.107 2.347 0.064 2.261 0.064 2.219 0.021 2.155v6.187l-0.064 1.963-0.021 0.96-0.064 1.877-0.085 1.835-0.107 1.771-0.128 1.728-0.128 1.664-0.149 1.621-0.149 1.579-0.171 1.493-0.171 1.472-0.213 1.387-0.192 1.365-0.213 1.28-0.213 1.237-0.213 1.195-0.128 0.576-0.235 1.088-0.256 1.067-0.256 0.981-0.256 0.939-0.512 1.707-0.128 0.384-0.277 0.747-0.256 0.683-0.277 0.619-0.277 0.576-0.256 0.512-0.149 0.213-0.256 0.427-0.533 0.704c-1.003 0.405-2.496 0.619-4.501 0.619zM480.619 610.475c5.291 0 9.216 4.523 9.216 10.496 0 3.115-1.109 6.229-3.243 9.472l-38.037 58.731c22.507 2.347 41.963 19.328 45.568 41.493h22.059c5.291 0 8.32 2.987 8.32 8.555 0 5.333-3.029 8.427-8.32 8.427h-21.952c-1.237 10.88-5.163 19.328-11.691 25.301l0.32 0.896h32.747c5.632 0 8.896 3.243 8.896 9.088 0 5.824-3.264 8.939-8.896 8.939h-88.213c-6.080 0-9.557-3.499-9.557-9.728s3.477-9.728 9.557-9.728h14.848c17.003 0 28.373-8.683 31.168-24.747h-47.253c-5.163 0-8.32-3.136-8.32-8.448 0-5.44 3.157-8.533 8.32-8.533h47.253c-3.264-15.573-18.112-25.429-37.568-25.557l-8.789-0.128c-3.584-0.128-6.507-3.52-6.507-7.787 0-2.069 0.555-3.755 1.685-5.44l48.384-74.56c3.029-4.8 6.187-6.741 10.005-6.741z" />
<glyph unicode="&#xe920;" glyph-name="ic-48-id" d="M758.997 318.656c14.4 0 26.069 11.947 26.069 26.667v270.699c0 58.816-46.784 106.667-104.277 106.667h-82.133v39.979c0 14.72-11.669 26.667-26.048 26.667h-104.277c-14.4 0-26.069-11.947-26.069-26.667v-40h-81.984c-57.493 0-104.277-47.851-104.277-106.667v-402.667c0-58.816 46.784-106.667 104.277-106.667h320.512c57.493 0 104.277 47.851 104.277 106.667 0 14.72-11.669 26.667-26.069 26.667s-26.069-11.947-26.069-26.667c0-29.397-23.381-53.333-52.139-53.333h-320.512c-28.757 0-52.139 23.936-52.139 53.333v402.667c0 29.397 23.381 53.333 52.139 53.333h81.984v-13.333c0-44.117 35.072-80 78.208-80 43.115 0 78.208 35.883 78.208 80v13.333h82.112c28.757 0 52.139-23.936 52.139-53.333v-270.677c0-14.72 11.669-26.667 26.069-26.667zM546.133 661.333c0-14.123-11.477-25.6-25.6-25.6s-25.6 11.477-25.6 25.6v76.8h51.2v-76.8zM392.533 270.507c0-15.083 11.371-27.307 25.408-27.307h188.117c14.016 0 25.408 12.224 25.408 27.307 0 45.44-22.101 85.461-55.36 108.267 10.027 14.357 15.957 32.192 15.957 51.477 0 47.424-35.904 86.016-80.064 86.016s-80.064-38.592-80.064-86.016c0-19.285 5.931-37.12 15.957-51.477-33.259-22.827-55.36-62.827-55.36-108.267zM443.733 294.4c10.837 29.973 37.355 51.2 68.267 51.2s57.429-21.227 68.267-51.2h-136.533zM477.867 430.933c0 18.816 15.317 34.133 34.133 34.133s34.133-15.317 34.133-34.133c0-18.816-15.317-34.133-34.133-34.133s-34.133 15.317-34.133 34.133z" />
<glyph unicode="&#xe921;" glyph-name="ic-48-income-active" d="M753.6 429.781c52.693 3.413 100.928 27.52 135.851 67.883 72.021 83.264 64.064 210.731-17.707 284.096-35.499 31.851-81.067 49.685-128.277 50.219l-2.283 0.021c-45.931 0-90.517-16.256-125.781-45.931-5.333-4.48-6.080-12.501-1.707-17.92 4.416-5.419 12.309-6.187 17.621-1.707 65.685 55.253 159.851 53.653 223.893-3.776 71.445-64.085 78.379-175.424 15.488-248.192-30.507-35.264-72.661-56.32-118.677-59.307-22.784-1.451-45.163 1.6-66.176 8.832-11.755 4.032-23.104 9.387-33.813 16-8.811 5.419-17.195 11.669-25.045 18.731-16.427 14.72-29.504 31.957-39.104 50.688-5.845 11.328-10.389 23.211-13.632 35.413-12.011 45.248-6.101 94.933 19.413 137.429 3.627 6.016 1.749 13.845-4.139 17.493-5.888 3.669-13.589 1.792-17.195-4.203-26.261-43.733-34.368-94.101-25.771-141.44-15.659 3.925-31.68 5.888-47.68 5.888-54.827 0-109.44-23.040-148.48-68.139-38.571-44.629-54.208-101.931-47.829-156.8l-78.037-24.533c-5.269 11.349-16.576 19.243-29.696 19.243h-76.693c-18.091 0-32.811-14.997-32.811-33.472v-191.595c0-18.432 14.72-33.429 32.811-33.429h76.693c14.357 0 26.581 9.429 31.040 22.507l100.48-17.749c0.725-0.128 1.451-0.192 2.176-0.192 5.973 0 11.243 4.373 12.288 10.56 1.195 6.912-3.371 13.525-10.176 14.72l-102.933 18.176v165.611l103.296 32.491c67.051 20.757 98.752 24.32 143.211 24.32h40.533c5.013-0.917 9.472-2.453 13.44-4.48 12.181-6.187 19.285-16.853 21.333-27.797 0.597-3.2 0.768-6.4 0.512-9.515-1.195-15.061-12.672-31.189-41.28-31.189h-31.531c-25.045 1.643-41.024-16.384-43.861-35.157-2.731-18.091 6.933-40.597 34.603-47.275l0.811-0.171 100.501-17.109c0.384-0.085 0.747-0.128 1.109-0.149 5.931-0.469 11.669-1.173 17.216-1.835 17.152-2.069 33.344-4.053 52.821 0.576l179.648 42.731c20.971 5.355 31.637-4.501 34.603-15.509 3.136-11.691-1.835-26.816-20.181-32.405l-281.536-85.717c-31.296-9.515-57.216-5.333-66.901-3.051l-0.64 0.128-97.877 17.28c-6.784 1.173-13.269-3.456-14.443-10.368-1.173-6.933 3.392-13.504 10.176-14.72l97.557-17.216c6.187-1.429 17.579-3.435 32.256-3.435 13.419 0 29.568 1.664 47.040 6.997l281.515 85.696c32.576 9.899 43.456 40.128 37.141 63.531-6.059 22.485-28.885 42.56-64.661 33.493l-179.371-42.667c-9.472-2.24-18.283-2.453-27.307-1.835 14.507 9.749 27.861 21.568 39.68 35.221 34.901 40.341 52.267 92.117 48.939 145.813-0.512 8-1.451 15.915-2.859 23.68 15.424-3.883 31.403-5.888 47.637-5.888 4.245 0 8.512 0.128 12.8 0.405zM202.709 144.704c0-4.331-3.605-7.979-7.872-7.979h-76.693c-4.224 0-7.808 3.648-7.808 7.979v191.595c0 4.416 3.499 8.021 7.808 8.021h76.693c4.267 0 7.872-3.669 7.872-8.021v-191.595zM628.309 282.603c-18.005-20.843-40.107-36.736-64.64-46.848l-90.347 15.403c-10.88 2.731-16.597 9.643-15.253 18.517 1.109 7.381 7.040 14.4 17.792 13.611l0.917-0.021h32c42.709 0 64.021 27.413 66.197 54.592 1.728 21.547-8.064 45.205-29.611 58.859-7.424 9.045-18.581 14.827-31.019 14.827h-30.933c-8.725 0-15.829 7.232-15.829 16.107s7.104 16.085 15.808 16.085h59.029c6.891 0 12.501 5.696 12.501 12.715 0 7.040-5.611 12.736-12.501 12.736h-31.147v21.547c0 7.019-5.611 12.715-12.523 12.715s-12.501-5.696-12.501-12.736v-21.525h-2.859c-22.507 0-40.811-18.624-40.811-41.536 0-7.68 2.048-14.848 5.632-21.013-34.603-1.557-66.688-7.168-121.301-23.957-4.224 46.507 9.621 94.613 42.261 132.352 47.317 54.699 120.853 72.256 184.789 50.347 10.859-32.171 29.867-61.867 56.491-85.739 16.64-14.933 35.2-26.667 55.083-35.051 2.923-11.2 4.821-22.784 5.547-34.624 2.923-46.891-12.245-92.117-42.752-127.36zM765.227 519.467c6.528 0 11.371 4.949 11.371 11.456 0 3.413-1.387 6.784-4.011 10.325l-46.955 64.064c27.776 2.56 51.797 21.077 56.256 45.248h27.221c6.528 0 10.283 3.264 10.283 9.344 0 5.803-3.755 9.173-10.283 9.173h-27.093c-1.515 11.883-6.4 21.077-14.443 27.584l0.427 1.003h40.405c6.955 0 10.987 3.52 10.987 9.899 0 6.357-4.053 9.749-10.987 9.749h-108.885c-7.488 0-11.797-3.819-11.797-10.603s4.309-10.603 11.797-10.603h18.347c20.971 0 34.987-9.472 38.464-27.008h-58.347c-6.379 0-10.261-3.413-10.261-9.195 0-5.952 3.883-9.344 10.261-9.344h58.347c-4.032-16.96-22.357-27.712-46.4-27.861l-10.816-0.128c-4.459-0.149-8.064-3.84-8.064-8.491 0-2.261 0.704-4.096 2.091-5.931l59.733-81.323c3.733-5.227 7.616-7.36 12.352-7.36z" />
<glyph unicode="&#xe922;" glyph-name="ic-48-medical" d="M620.587 787.883c114.176 0 210.347-83.968 225.92-196.181 53.931-21.12 92.16-72.661 92.16-132.779 0-78.848-65.792-143.019-146.688-143.019-80.853 0-146.645 64.171-146.645 143.019 0 78.891 65.792 143.061 146.645 143.061 6.485 0 12.885-0.427 19.157-1.237-18.773 89.301-97.707 154.624-190.549 154.624-53.973 0-104.192-21.632-141.355-60.928-3.157-3.328-7.595-5.248-12.245-5.248s-9.088 1.92-12.245 5.248c-37.12 39.253-87.339 60.928-141.312 60.928-107.392 0-194.773-87.595-194.773-195.243 0-23.637 8.832-51.627 26.027-83.328h156.416l40.96 139.392c2.048 6.912 8.533 11.691 15.872 11.776 7.381 0.128 13.909-4.523 16.085-11.392l81.323-254.080 32.427 101.291c2.133 6.784 8.576 11.392 15.872 11.392h86.656c9.216 0 16.64-7.253 16.64-16.213 0-9.003-7.424-16.299-16.64-16.299h-74.411l-44.629-139.52c-2.176-6.827-8.619-11.435-15.915-11.435s-13.739 4.608-15.915 11.392l-80.64 251.989-29.141-98.987c-2.048-6.997-8.533-11.776-16-11.776h-149.205c29.824-44.8 73.941-95.744 131.584-151.68 71.979-69.803 144.811-127.445 170.965-147.627 22.016 16.981 77.056 60.459 136.704 115.285 6.699 6.144 17.237 5.845 23.552-0.683s5.973-16.811-0.683-22.997c-24.277-22.315-47.787-42.752-68.693-60.416l-13.568-11.307c-39.381-32.64-66.731-53.12-67.157-53.419-2.987-2.261-6.571-3.371-10.155-3.371-3.541 0-7.125 1.109-10.112 3.371-0.939 0.683-93.141 69.675-184.107 157.867-67.157 65.109-116.352 123.563-147.499 174.933h-23.253c-9.216 0-16.683 7.296-16.683 16.299 0 8.96 7.467 16.213 16.64 16.213h5.547c-14.763 30.763-22.187 58.581-22.187 83.371 0 125.568 102.315 227.755 228.096 227.755 57.6 0 111.531-20.949 153.6-59.349 42.027 38.4 95.915 59.307 153.557 59.307zM650.112 304.555c6.4 6.4 16.981 6.485 23.552 0.213s6.699-16.555 0.256-22.997l-0.469-0.427c-3.285-3.285-7.595-4.907-11.947-4.907-4.181 0-8.405 1.536-11.648 4.651-6.571 6.272-6.656 16.555-0.213 22.997zM791.979 569.472c-62.464 0-113.323-49.579-113.323-110.507 0-61.013 50.859-110.549 113.323-110.549 62.507 0 113.365 49.579 113.365 110.507 0 60.971-50.859 110.507-113.365 110.507zM791.979 534.613c9.216 0 16.683-7.253 16.683-16.213v-43.221h44.288c9.216 0 16.64-7.253 16.64-16.213 0-9.003-7.424-16.299-16.64-16.299h-44.288v-43.179c0-8.96-7.467-16.256-16.64-16.256-9.216 0-16.683 7.253-16.683 16.213v43.221h-44.288c-9.216 0-16.64 7.253-16.64 16.256 0 8.96 7.424 16.256 16.64 16.256h44.288v43.221c0 8.96 7.467 16.256 16.64 16.256z" />
<glyph unicode="&#xe923;" glyph-name="ic-48-no-check" d="M640 506.112v-284.373c0-110.379-79.787-200.405-177.792-200.405-78.72 0-145.664 57.941-168.96 138.027l23.552 23.552c15.445-75.349 74.752-131.712 145.408-131.712 80.469 0 146.304 72.96 149.248 164.139l0.085 6.4v255.957l28.416 28.416zM902.443 825.131c5.205-5.205 5.205-13.653 0-18.859l-735.36-735.445c-5.205-5.205-13.653-5.205-18.859 0s-5.205 13.653 0 18.859l735.36 735.488c5.205 5.205 13.653 5.205 18.859 0zM253.568 846.080c8.661-23.125-2.133-49.28-24.192-58.368s-46.933 2.304-55.595 25.472c-17.323-4.907-29.739-20.608-31.36-39.083l-0.213-4.011v-194.219h42.667v-31.573c1.109-51.925 34.176-97.067 81.707-111.445 25.429-8.491 52.779-8.491 78.208 0 45.824 13.824 78.251 56.192 81.621 105.728l0.256 5.717v31.573h28.459l-0.64 194.347c-0.171 19.883-12.8 37.291-31.019 42.752-4.693-12.245-14.251-21.675-26.197-25.728-22.272-7.68-46.251 5.12-53.504 28.501-7.253 23.424 4.864 48.597 27.179 56.235 22.272 7.637 46.208-5.12 53.504-28.544 32.256-6.144 56.149-34.517 58.325-68.48l0.171-4.651 0.597-194.432h28.459v-31.147c0-22.187-3.669-43.733-10.539-64.043l-131.84-131.797c-2.389-0.853-4.821-1.621-7.253-2.389l-6.827-1.92v-9.813l-28.459-28.459v32.427l-7.808-0.768c-4.437-0.427-8.96-0.768-13.483-0.939l-7.509-0.128c-4.565 0-9.088 0.213-13.611 0.512l-14.464 1.28v-31.701c0-8.363 1.28-27.136 11.819-29.611l2.432-0.256h13.44l-27.307-27.307c-14.72 5.589-27.307 21.163-28.715 51.627l-0.085 5.547v37.547c-88.96 23.893-153.173 102.741-156.331 193.28l-0.128 7.040v31.061h28.459v194.219c0.085 36.309 25.045 67.285 59.136 73.387 3.925 12.843 13.141 23.125 25.088 28.075 22.016 9.088 46.933-2.304 55.552-25.472zM773.845 640c44.715-18.389 77.184-65.707 79.36-121.685l0.128-6.059v-27.136c43.691-6.656 77.995-42.667 84.309-88.576 7.851-57.173-29.867-110.165-84.309-118.443-54.443-8.235-104.917 31.403-112.768 88.576-7.595 55.381 27.563 106.88 79.275 117.504l5.035 0.939v27.093c0 51.541-32.213 94.592-74.709 104.107l23.68 23.68zM839.125 456.405c-39.296 0-71.125-33.408-71.125-74.667s31.829-74.667 71.083-74.667c39.253 0 71.083 33.408 71.125 74.667 0 41.259-31.829 74.667-71.125 74.667zM839.125 426.539c23.552 0 42.667-20.053 42.667-44.8s-19.115-44.8-42.667-44.8c-23.595 0-42.667 20.053-42.667 44.8s19.072 44.8 42.667 44.8zM839.125 396.672c-7.893 0-14.251-6.699-14.251-14.933s6.4-14.933 14.208-14.933c7.851 0 14.251 6.699 14.251 14.933s-6.4 14.933-14.251 14.933zM156.459 546.048h-42.667v-1.195c0-83.115 60.971-156.203 145.067-173.867 6.485-1.408 13.013-2.475 19.627-3.115 20.053-2.133 40.235-1.067 59.989 3.072 81.877 17.237 141.867 87.040 144.939 167.381l0.128 7.723h-28.416v-1.707c-1.109-64.939-42.24-121.6-101.632-139.861-31.061-10.325-64.427-10.325-95.573 0-57.301 17.664-97.664 71.211-101.248 133.419l-0.213 6.443v1.707zM384 844.8c-7.851 0-14.208-6.656-14.208-14.933 0-8.235 6.357-14.933 14.208-14.933s14.208 6.699 14.208 14.933c0 8.277-6.357 14.933-14.208 14.933zM213.333 844.8c-7.851 0-14.208-6.656-14.208-14.933 0-8.235 6.357-14.933 14.208-14.933s14.208 6.699 14.208 14.933c0 8.277-6.357 14.933-14.208 14.933z" />
<glyph unicode="&#xe924;" glyph-name="ic-48-pen-paper" d="M596.8 133.333c0-14.72-12.032-26.667-26.901-26.667h-248.917c-59.371 0-107.648 47.851-107.648 106.667v382.869c0 27.669 10.837 53.76 30.507 73.408l88.853 88.853c19.627 19.627 46.869 30.869 74.773 30.869h244.373c59.349 0 107.648-47.851 107.648-106.667v-249.344c0-14.72-12.053-26.667-26.901-26.667-14.869 0-26.923 11.947-26.923 26.667v249.344c0 29.397-24.149 53.333-53.824 53.333h-244.373c-13.611 0-26.944-5.504-36.523-15.083l-88.853-88.853c-4.352-4.331-7.808-9.323-10.304-14.72h74.773c22.251 0 40.363 17.92 40.363 40 0 14.72 12.053 26.667 26.923 26.667 14.848 0 26.901-11.947 26.901-26.667 0-51.477-42.24-93.355-94.187-93.355h-79.381v-350.656c0-29.397 24.128-53.333 53.824-53.333h248.917c14.869 0 26.901-11.947 26.901-26.667zM804.011 130.176c-15.787-15.659-36.565-23.509-57.323-23.509s-41.515 7.851-57.323 23.509l-147.776 146.837c-3.307 3.264-5.675 7.339-6.912 11.776l-30.229 108.181c-2.624 9.429 0.128 19.52 7.168 26.347s17.301 9.301 26.731 6.464l106.389-32.064c4.267-1.28 8.107-3.584 11.264-6.699l148.053-147.157c31.573-31.317 31.573-82.347-0.043-113.685zM587.008 308.096l99.883-99.029 38.443 38.037-100.437 99.584-53.163 15.979 15.275-54.592zM768.64 203.861l-5.184 5.205-38.123-38.123 5.205-5.205c10.496-10.496 27.605-10.496 38.101 0 10.517 10.517 10.517 27.627 0 38.123z" />
<glyph unicode="&#xe925;" glyph-name="ic-48-pincode-active" d="M486.059 865.749c15.253 11.883 36.629 11.883 51.883 0l61.696-47.915h154.133c23.573 0 42.667-19.093 42.667-42.667v-110.080l136.747-106.24c0.213-0.192 0.341-0.448 0.555-0.64 0.725-0.683 1.387-1.451 1.92-2.261 0.555-0.661 1.024-1.387 1.451-2.133 0.341-0.789 0.597-1.621 0.811-2.453 0.299-0.939 0.491-1.92 0.576-2.901 0-0.299 0.171-0.555 0.171-0.853v-483.563c-0.043-4.565-0.853-9.109-2.347-13.44 2.837-4.331 3.072-9.899 0.597-14.464-2.496-4.565-7.275-7.381-12.48-7.36-1.28 0.043-2.517 0.235-3.733 0.619-7.189-5.184-15.829-8-24.704-8.021h-768c-8.853 0-17.451 2.773-24.64 7.893-5.675-1.621-11.776 0.448-15.275 5.227-3.499 4.757-3.627 11.2-0.384 16.107-1.493 4.331-2.304 8.875-2.368 13.44v483.627c0 0.299 0.171 0.555 0.171 0.853 0.085 0.96 0.277 1.92 0.576 2.837 0.213 0.853 0.469 1.664 0.811 2.453 0.427 0.747 0.896 1.472 1.429 2.133 0.555 0.811 1.216 1.579 1.92 2.24 0.235 0.213 0.341 0.469 0.576 0.661l136.725 106.24v110.080c0 23.573 19.115 42.667 42.667 42.667h154.133zM520.405 338.752c-4.971 3.925-11.968 3.925-16.939 0l-371.947-288.917h760.96zM753.771 789.397h-483.563c-7.851 0-14.229-6.379-14.229-14.229v-256c0-7.851-6.357-14.229-14.208-14.229s-14.229 6.379-14.229 14.229v109.888l-100.053-77.739 236.779-183.851c6.187-4.821 7.339-13.76 2.517-19.968s-13.739-7.339-19.968-2.517l-233.045 180.971v-453.909l372.309 289.152c15.232 11.861 36.587 11.861 51.84 0l372.309-289.152v453.909l-233.493-181.291c-6.187-4.821-15.147-3.691-19.947 2.517-4.821 6.187-3.712 15.147 2.496 19.947l237.205 184.192-100.053 77.739v-109.867c0-7.893-6.357-14.251-14.229-14.251-7.851 0-14.208 6.379-14.208 14.229v256c0 7.851-6.379 14.229-14.229 14.229zM654.208 547.605c7.872 0 14.229-6.357 14.229-14.208s-6.357-14.229-14.229-14.229h-128c-7.851 0-14.208 6.379-14.208 14.229s6.357 14.208 14.208 14.208zM654.208 632.939c7.872 0 14.229-6.357 14.229-14.208s-6.357-14.229-14.229-14.229h-284.437c-7.851 0-14.229 6.379-14.229 14.229s6.379 14.208 14.229 14.208zM654.208 718.272c7.872 0 14.229-6.357 14.229-14.208s-6.357-14.229-14.229-14.229h-284.437c-7.851 0-14.229 6.379-14.229 14.229s6.379 14.208 14.229 14.208zM520.427 843.307c-4.971 3.947-12.011 3.947-16.96 0l-32.725-25.472h82.496z" />
<glyph unicode="&#xe926;" glyph-name="ic-48-thumb" d="M503.317 491.904c-110.187 0-200.427-98.219-200.427-219.563 0-59.093 20.181-106.283 60.907-158.635l5.675-7.189 8.171-9.941 8.192-9.685 12.245-14.187 15.595-18.261 7.253-8.832c5.077-6.4 9.451-12.245 13.291-17.877 2.773-4.096 7.253-6.4 11.947-6.4 11.605 0 18.773 13.781 11.883 23.893l-4.608 6.571-4.928 6.635-5.483 6.997-6.251 7.659-11.307 13.333-13.611 15.701-8.277 9.664-8.256 9.877-8.021 9.963c-36.8 46.869-55.211 88.896-55.211 140.715 0 104.021 76.373 189.269 171.221 189.269 93.056 0 168.384-82.112 171.136-183.509l0.085-5.76v-30.72l0.085-2.325c0.768-7.723 7.083-13.547 14.507-13.547 7.253 0 13.397 5.547 14.443 12.885l0.171 2.261v31.275l-0.085 6.251c-2.965 118.763-92.203 213.483-200.341 213.483zM516.459 625.024c-175.552 0-329.259-149.269-329.259-328.384 0-78.208 12.565-128.853 49.92-181.12 4.843-6.72 14.187-8.277 20.928-3.477 6.784 4.821 8.363 14.251 3.52 21.013-32.64 45.653-44.331 89.152-44.331 163.584 0 159.189 139.52 298.304 299.221 298.304 80.427 0 159.637-35.264 217.472-96.683 81.899-87.019 111.36-217.28 67.627-304.533-50.368-100.416-202.88-66.624-207.147 50.837l-0.085 5.077c0 89.6-39.957 132.821-89.92 123.947-49.067-8.683-81.749-62.336-65.365-127.616 2.005-8.043 10.155-12.928 18.197-10.923s12.971 10.176 10.923 18.261c-11.84 47.253 10.24 90.965 48.299 90.965 31.787 0 46.805-38.464 47.765-89.152l0.128-10.709c4.245-149.461 199.68-192.576 264.043-64.213 91.072 181.739-79.808 444.864-311.936 444.864zM511.552 741.525c-119.573 0-273.749-81.92-338.347-180.416-4.629-7.104-2.731-16.747 4.139-21.397 6.677-4.523 15.637-2.709 20.139 4.181 58.752 89.621 204.437 167.083 314.069 167.083 120.405 0 257.621-66.709 313.515-166.187 2.688-4.779 7.552-7.573 12.715-7.573 11.093 0 18.432 12.715 12.651 22.997-60.16 107.051-206.165 181.333-338.88 181.333zM829.909 763.435c-201.472 147.072-415.573 148.693-620.011 2.56-6.699-4.757-8.171-13.909-3.328-20.48 4.907-6.613 14.4-8.107 21.184-3.264 193.877 138.539 393.451 136.747 584.064-2.389 6.72-4.907 16.235-3.52 21.205 3.051 4.416 5.867 3.733 13.867-1.28 18.965l-1.835 1.557z" />
<glyph unicode="&#xe927;" glyph-name="ic-arrow-back" d="M853.325 490.675h-519.245l238.515 238.49-60.595 60.16-341.325-341.325 341.325-341.325 60.16 60.16-238.080 238.49h519.245z" />
<glyph unicode="&#xe928;" glyph-name="ic-arrow-forward" d="M512 789.325l-60.16-60.16 238.080-238.49h-519.245v-85.35h519.245l-238.080-238.49 60.16-60.16 341.325 341.325z" />
<glyph unicode="&#xe929;" d="M1024 448c0-282.77-229.23-512-512-512s-512 229.23-512 512c0 282.77 229.23 512 512 512s512-229.23 512-512z" />
<glyph unicode="&#xe92a;" d="M674.45 476.873c-2.048 2.085-4.864 3.255-7.771 3.255h-282.039l-55.863 56.558c15.488 23.223 12.544 54.29-7.040 74.057l-33.061 33.481c-22.583 22.802-59.136 22.802-81.719 0l-33.061-33.463c-4.315-4.352-4.315-11.429 0-15.781l171.63-173.751-35.273-114.139c-5.211-16.951-2.176-35.401 8.229-49.701 10.386-14.281 26.88-22.729 44.416-22.729h276.882c17.518 0 34.011 8.448 44.379 22.747 10.386 14.299 13.422 32.731 8.192 49.682l-23.845 77.312 111.616-113.006c4.297-4.334 11.282-4.334 15.579 0l33.061 33.481c4.315 4.37 4.315 11.429 0 15.781l-154.313 156.215zM655.305 278.784c-5.778-7.662-15.031-12.16-24.869-12.123h-258.231c-9.819 0-19.054 4.517-24.869 12.142s-7.497 17.463-4.571 26.496l32.475 100.023h252.197l32.475-100.023c2.981-9.033 1.28-18.907-4.59-26.514zM787.913 295.058l-135.497 137.179c-0.165 0.183-0.384 0.219-0.549 0.366-0.713 0.622-1.481 1.152-2.322 1.573-0.366 0.183-0.658 0.402-1.024 0.549-1.243 0.494-2.56 0.768-3.895 0.786h-282.021l-165.339 167.369 17.481 17.682 157.55-159.47c2.066-2.103 4.864-3.273 7.79-3.273h282.039l143.287-145.042-17.481-17.701z" />
<glyph unicode="&#xe92b;" glyph-name="ic-check-box_3" d="M810.667 832h-597.333c-47.36 0-85.333-38.4-85.333-85.333v-597.333c0-46.933 37.973-85.333 85.333-85.333h597.333c47.36 0 85.333 38.4 85.333 85.333v597.333c0 46.933-37.973 85.333-85.333 85.333zM426.667 234.667l-213.333 213.333 60.16 60.16 153.173-152.747 323.84 323.84 60.16-60.587-384-384z" />
<glyph unicode="&#xe92c;" glyph-name="ic-check-box-3" horiz-adv-x="1067" d="M810.667 832h-597.333c-47.36 0-85.333-38.4-85.333-85.333v-597.333c0-46.933 37.973-85.333 85.333-85.333h597.333c47.36 0 85.333 38.4 85.333 85.333v597.333c0 46.933-37.973 85.333-85.333 85.333zM426.667 234.667l-213.333 213.333 60.16 60.16 153.173-152.747 323.84 323.84 60.16-60.587-384-384z" />
<glyph unicode="&#xe92d;" glyph-name="ic-check-box-4" horiz-adv-x="1067" d="M810.667 746.667v-597.333h-597.333v597.333h597.333zM810.667 832h-597.333c-46.933 0-85.333-38.4-85.333-85.333v-597.333c0-46.933 38.4-85.333 85.333-85.333h597.333c46.933 0 85.333 38.4 85.333 85.333v597.333c0 46.933-38.4 85.333-85.333 85.333z" />
<glyph unicode="&#xe92e;" glyph-name="ic-check-box-copy" d="M512 874.667c235.52 0 426.667-191.147 426.667-426.667s-191.147-426.667-426.667-426.667-426.667 191.147-426.667 426.667 191.147 426.667 426.667 426.667zM512 789.333c-188.16 0-341.333-153.173-341.333-341.333s153.173-341.333 341.333-341.333 341.333 153.173 341.333 341.333-153.173 341.333-341.333 341.333z" />
<glyph unicode="&#xe92f;" glyph-name="ic-close" d="M810.656 686.496l-60.16 60.16-238.496-238.496-238.496 238.496-60.16-60.16 238.496-238.496-238.496-238.496 60.16-60.16 238.496 238.496 238.496-238.496 60.16 60.16-238.496 238.496z" />
<glyph unicode="&#xe930;" glyph-name="ic-delete_4" d="M384 270.080l-177.92 177.92-60.587-60.16 238.507-238.507 512 512-60.16 60.16z" />
<glyph unicode="&#xe931;" glyph-name="ic-gifts" d="M292.011 594.496c13.077 3.563 26.581 0.149 36.459-9.109l1.173-1.152 40.725-41.429 36.971 37.632c8 8.107 20.821 8.405 29.141 0.853l0.917-0.853 60.096-61.141c4.373-4.437 6.421-10.325 6.187-16.149l-0.085-1.344h38.016l-5.035 5.013c-13.909 13.781-6.677 37.632 12.096 41.323l1.173 0.192 27.285 4.053 12.203 25.131c8.576 17.707 33.045 18.091 42.325 1.152l0.597-1.152 12.203-25.152 27.285-4.032c19.2-2.837 27.136-26.453 14.080-40.661l-0.832-0.853-5.035-5.013h141.419c5.483 0 10.112-4.288 10.581-9.856l0.043-0.939v-266.581c0-17.536-13.611-31.68-30.528-32.405l-1.344-0.021h-358.4c-8.533 0-16.533 3.392-22.549 9.493-5.653 5.76-8.917 13.248-9.301 21.312l-0.043 1.621v137.856c0 5.931 4.779 10.773 10.624 10.773 5.547 0 10.133-4.352 10.581-9.877l0.043-0.917v-137.835c0-5.632 4.288-10.283 9.707-10.773l0.917-0.043h358.4c5.547 0 10.133 4.373 10.603 9.877l0.043 0.939v255.787h-321.643l-277.099-281.899c-4.139-4.224-9.6-6.315-15.019-6.315-4.992 0-9.984 1.771-13.973 5.291l-1.067 1.024-60.096 61.141c-8 8.128-8.299 21.141-0.853 29.653l2.688 2.773 35.157 35.755-40.747 41.429c-20.864 21.227-11.797 57.195 16.064 65.877l1.408 0.427 79.488 21.653c5.141 12.331 14.443 22.123 26.304 27.755l1.792 0.832 21.312 80.853c3.627 13.824 13.931 24.32 27.52 28.011zM482.475 504.021l-60.117 61.12-285.483-290.368 60.117-61.141 285.483 290.411zM210.859 433.493l-69.781-19.008c-6.187-1.707-10.88-6.464-12.523-12.736-1.557-5.888-0.171-11.947 3.712-16.469l0.853-0.939 40.747-41.429 49.109 49.963-47.851-13.035c-5.675-1.557-11.499 1.877-13.013 7.637-1.429 5.461 1.493 11.072 6.635 12.949l0.875 0.277 46.080 12.565c-2.603 5.696-4.181 11.755-4.693 17.92l-0.149 2.304zM287.104 458.112c-8.277 8.96-20.629 12.288-32.149 8.875-23.445-6.955-30.869-37.419-12.864-54.677l45.013 45.803zM314.624 568.939c-9.387 9.536-25.237 5.547-29.333-7.019l-0.32-1.067-18.688-70.976c6.080-0.277 12.075-1.6 17.771-3.968l2.133-0.939 12.331 46.848c1.515 5.76 7.339 9.173 13.013 7.637 5.376-1.472 8.661-6.869 7.701-12.331l-0.192-0.917-12.8-48.64 49.088 49.92-40.725 41.451zM611.563 569.429h-1.344l-0.299-0.043-0.299-0.128-0.299-0.213-0.213-0.256-0.384-0.512-0.427-0.725-1.195-2.197-3.243-6.592-10.155-21.077c-1.557-3.2-4.544-5.397-8-5.909l-28.885-4.203-2.837-0.512-0.981-0.213-0.747-0.213-0.363-0.128-0.299-0.149-0.32-0.213-0.213-0.256-0.149-0.277-0.299-0.917-0.085-0.341v-0.235c0-0.341 0.128-0.704 0.512-1.237l0.597-0.747 0.384-0.448 1.685-1.771 18.347-18.133h77.461l20.651 20.48c1.493 1.493 0.853 3.925-1.003 4.544l-0.491 0.107-32.811 4.864c-3.456 0.512-6.443 2.709-8 5.909l-12.885 26.667-1.344 2.603-0.789 1.323-0.256 0.363-0.213 0.277-0.341 0.277-0.192 0.128-0.277 0.107zM761.323 546.155c5.077 0 9.216-4.181 9.216-9.323s-4.139-9.323-9.237-9.323c-5.077 0-9.216 4.181-9.216 9.323s4.139 9.323 9.216 9.323zM487.019 714.475c7.467 15.275 29.461 16 37.803 1.067l0.576-1.067 4.651-9.429c3.477-7.104-1.685-15.424-9.6-15.424-3.776 0-7.211 1.963-9.131 5.141l-0.448 0.832-4.651 9.408-11.819-23.851c-1.408-2.859-4.032-4.907-7.104-5.653l-0.939-0.192-26.368-3.84 19.093-18.56c2.261-2.197 3.413-5.291 3.2-8.405l-0.149-1.045-4.48-26.219 12.672 6.741 2.475 1.28 2.261 1.109 2.069 0.939c6.955 3.029 11.029 3.029 18.027 0.021l2.091-0.939 2.261-1.109 2.496-1.28 12.757-6.763-4.48 26.24c-0.555 3.093 0.32 6.272 2.347 8.661l0.725 0.789 19.072 18.56c-5.824 0.853-9.899 6.229-9.045 12.096 0.768 5.248 5.461 9.429 11.157 9.131l1.344-0.149 0.64-0.107 0.896-0.192 1.088-0.299 0.64-0.192 1.344-0.512c2.624-1.067 5.803-2.923 8.469-6.208 6.741-8.299 6.464-20.16-0.704-27.947l-0.896-0.917-15.061-14.656 3.541-20.693c0.213-1.195 0.32-2.432 0.32-3.669 0.043-15.573-16.427-25.856-30.379-19.307l-0.96 0.469-18.603 9.771-13.611-7.211-2.773-1.429-2.347-1.152-2.027-0.896-1.195-0.469-0.576-0.192-1.088-0.32-1.067-0.235-0.533-0.107-1.067-0.128-1.088-0.085h-1.173c-5.461 0-10.816 2.069-14.933 6.059-4.139 3.968-6.507 9.515-6.485 15.232 0 0.832 0.043 1.643 0.128 2.475l0.192 1.195 3.541 20.693-5.76 5.547-4.821 4.587-2.069 2.027c-6.165 6.229-8.917 10.475-8.875 17.728 0 5.035 1.707 9.728 4.864 13.632 3.093 3.84 6.251 5.717 11.093 6.997l2.027 0.469 2.24 0.427 2.453 0.427 2.688 0.384 13.76 1.877 9.301 18.816zM650.667 626.923c5.099 0 9.216-4.16 9.216-9.323 0-5.12-4.117-9.301-9.216-9.301s-9.216 4.16-9.216 9.301c0 5.163 4.117 9.323 9.216 9.323zM712.128 713.92c5.44 0 9.877-4.309 10.347-9.813l0.043-0.939v-4.181l3.669 1.259c5.44 1.856 11.307-1.237 13.099-6.869 1.685-5.333-0.896-11.093-5.803-13.227l-0.832-0.341-3.819-1.301 2.411-3.477c4.971-7.147-0.064-17.024-8.405-17.024-4.224 0-6.656 2.176-8.491 4.544l-0.939 1.301-1.28 1.877-2.261-3.264c-3.349-4.8-9.813-5.909-14.464-2.432-4.395 3.264-5.589 9.451-2.88 14.187l0.512 0.811 2.411 3.477-3.84 1.28c-5.419 1.877-8.405 7.936-6.613 13.589 1.707 5.333 7.040 8.384 12.224 7.125l0.853-0.256 3.691-1.259v4.181c0 5.931 4.651 10.752 10.368 10.752zM595.349 726.357c5.077 0 9.216-4.181 9.216-9.323 0-5.163-4.139-9.323-9.216-9.323-5.099 0-9.216 4.16-9.216 9.323 0 5.12 4.117 9.323 9.216 9.323zM767.467 776.064c5.077 0 9.216-4.181 9.216-9.323 0-5.163-4.139-9.323-9.216-9.323-5.12 0-9.237 4.16-9.237 9.323 0 5.141 4.139 9.323 9.237 9.323zM601.493 832c5.419 0 9.877-4.331 10.325-9.813l0.043-0.939v-4.181l3.691 1.259c5.44 1.856 11.307-1.237 13.077-6.869 1.707-5.333-0.875-11.093-5.781-13.227l-0.853-0.341-3.797-1.301 2.389-3.477c3.349-4.821 2.304-11.52-2.347-14.997-4.395-3.285-10.432-2.496-13.888 1.664l-0.597 0.768-2.261 3.264-1.323-1.92-0.96-1.344c-1.856-2.368-4.267-4.48-8.405-4.48-8.107 0-13.013 9.237-8.896 16.299l0.491 0.747 2.389 3.477-3.819 1.28c-5.44 1.856-8.405 7.936-6.613 13.589 1.685 5.333 7.040 8.384 12.224 7.125l0.853-0.256 3.691-1.259v4.181c0 5.931 4.629 10.752 10.368 10.752z" />
<glyph unicode="&#xe932;" glyph-name="ic-help-outline" d="M469.333 192h85.333v85.333h-85.333v-85.333zM512 874.667c-235.52 0-426.667-191.147-426.667-426.667s191.147-426.667 426.667-426.667 426.667 191.147 426.667 426.667-191.147 426.667-426.667 426.667zM512 106.667c-188.16 0-341.333 153.173-341.333 341.333s153.173 341.333 341.333 341.333 341.333-153.173 341.333-341.333-153.173-341.333-341.333-341.333zM512 704c-94.293 0-170.667-76.373-170.667-170.667h85.333c0 46.933 38.4 85.333 85.333 85.333s85.333-38.4 85.333-85.333c0-85.333-128-74.667-128-213.333h85.333c0 96 128 106.667 128 213.333 0 94.293-76.373 170.667-170.667 170.667z" />
<glyph unicode="&#xe933;" glyph-name="ic-help-outline_1" d="M469.312 192h85.376v85.312h-85.376v-85.312zM512 874.688c-235.52 0-426.688-191.168-426.688-426.688s191.168-426.688 426.688-426.688c235.52 0 426.688 191.168 426.688 426.688s-191.168 426.688-426.688 426.688zM512 106.688c-188.16 0-341.312 153.152-341.312 341.312s153.152 341.312 341.312 341.312c188.16 0 341.312-153.152 341.312-341.312s-153.152-341.312-341.312-341.312zM512 704c-94.272 0-170.688-76.352-170.688-170.688h85.376c0 46.976 38.4 85.376 85.312 85.376s85.312-38.4 85.312-85.376c0-85.312-128-74.624-128-213.312h85.376c0 96 128 106.688 128 213.312 0 94.336-76.416 170.688-170.688 170.688z" />
<glyph unicode="&#xe934;" glyph-name="ic-keyboard-arrow-down" d="M707.84 593.493l-195.84-195.413-195.84 195.413-60.16-60.16 256-256 256 256z" />
<glyph unicode="&#xe935;" glyph-name="ic-money" d="M512 229.931c5.355 0 9.707-4.992 9.707-11.157v-154.795l10.453 10.901c4.267 4.459 11.179 4.459 15.424 0 4.267-4.437 4.267-11.648 0-16.085l-32.725-34.133c-2.027-2.133-4.821-3.328-7.701-3.328-2.901 0-5.675 1.195-7.723 3.328l-32.725 34.133c-4.267 4.437-4.267 11.648 0 16.085 4.267 4.459 11.179 4.459 15.424 0l20.16-21.013v164.907c0 6.165 4.352 11.157 9.707 11.157zM512 704c117.632 0 213.333-93.568 213.333-208.597 0-60.117-26.155-114.368-67.904-152.469v-203.115l10.496 10.923c2.752 2.88 6.763 3.989 10.539 2.944 3.755-1.067 6.699-4.117 7.701-8.043 1.024-3.925-0.064-8.107-2.816-10.987l-32.725-34.133c-2.048-2.133-4.821-3.328-7.723-3.328-2.88 0-5.653 1.195-7.701 3.328l-32.725 34.133c-4.267 4.437-4.267 11.648 0 16.085s11.157 4.437 15.424 0l25.003-26.091 1.579 1.621c-3.755 1.493-6.4 5.504-6.4 10.197v190.763c-14.848-10.667-31.125-19.477-48.491-26.133v-97.899c0-6.187-4.352-11.2-9.707-11.2s-9.707 5.013-9.707 11.2v91.499c-18.496-5.12-38.016-7.893-58.176-7.893s-39.68 2.773-58.176 7.893v-34.752c0-6.101-4.352-11.051-9.707-11.051-5.333 0-9.685 4.949-9.685 11.051v41.152c-79.424 30.4-135.765 106.027-135.765 194.304 0 115.029 95.701 208.597 213.333 208.597zM376.235 267.861c5.355 0 9.707-4.971 9.707-11.072v-110.613c0-4.8-2.667-8.875-6.4-10.411l1.557-1.621 25.003 26.069c2.773 2.88 6.784 4.011 10.539 2.944 3.776-1.045 6.699-4.117 7.723-8.043 1.003-3.925-0.085-8.107-2.837-10.987l-32.725-34.133c-2.048-2.133-4.821-3.328-7.701-3.328-2.901 0-5.675 1.195-7.723 3.328l-32.725 34.133c-4.267 4.437-4.267 11.648 0 16.085 4.267 4.459 11.157 4.459 15.424 0l10.453-10.88v107.456c0 6.101 4.352 11.072 9.707 11.072zM512 267.861c5.355 0 9.707-4.267 9.707-9.493v-9.472c0-5.248-4.352-9.493-9.707-9.493s-9.707 4.267-9.707 9.493v9.472c0 5.248 4.352 9.493 9.707 9.493zM376.235 305.771c5.355 0 9.707-4.245 9.707-9.472v-9.493c0-5.227-4.352-9.472-9.707-9.472-5.333 0-9.685 4.245-9.685 9.472v9.493c0 5.227 4.331 9.472 9.685 9.472zM512 682.048c-105.259 0-190.869-83.733-190.869-186.645s85.611-186.624 190.869-186.624c105.259 0 190.869 83.712 190.869 186.624s-85.611 186.645-190.869 186.645zM512 660.075c93.013 0 168.427-73.728 168.427-164.672-0.107-90.901-75.456-164.565-168.427-164.693-93.013 0-168.427 73.749-168.427 164.693s75.413 164.693 168.427 164.693zM512 638.123c-80.619 0-145.963-63.893-145.963-142.72s65.344-142.72 145.963-142.72c80.619 0 145.963 63.893 145.963 142.72-0.085 78.784-65.387 142.635-145.963 142.72zM509.184 580.203c3.179 0 6.229-0.149 9.173-0.448l4.373-0.533h68.693l-2.987-13.611h-36.629c6.613-6.571 10.539-15.275 11.2-25.728l0.085-3.2h18.944l-3.008-13.611h-17.301c-5.717-25.707-28.395-44.8-67.051-45.931l-4.053-0.043-7.147 0.128 58.795-67.691h-36.096l-58.069 67.2 4.779 22.677h38.357c21.333 0 35.413 7.637 40.853 21.44l0.789 2.219h-74.731l2.987 13.611h73.493c-0.597 13.269-10.816 22.677-28.16 23.595l-2.816 0.064h-37.248l4.032 19.861h38.741z" />
<glyph unicode="&#xe936;" glyph-name="ic-secure" d="M731.307 528c5.205 20.971 26.027 34.261 47.467 30.293 18.517-3.947 31.787-20.117 31.893-38.912 0-2.624-0.235-5.248-0.747-7.808l-0.619-2.56-43.52-161.195c-2.347-8.619-6.955-16.427-13.355-22.635l-2.475-2.261-46.784-39.808c-6.016-5.12-9.728-12.331-10.411-20.075l-0.107-2.603v-11.541h20.053c5.056 0 9.237-3.691 9.941-8.491l0.107-1.493v-79.616c0-5.013-3.712-9.152-8.533-9.856l-1.493-0.107h-180.629c-5.056 0-9.216 3.691-9.941 8.491l-0.107 1.472v79.637c0 4.992 3.712 9.131 8.555 9.835l1.493 0.128h20.053v75.52c0.085 30.507 15.744 58.816 41.408 75.285l3.264 2.005 68.629 39.915c12.267 7.040 27.307 7.104 39.552 0.32l2.581-1.557 23.723 87.595zM245.227 558.293c20.565 3.819 40.576-8.277 46.784-27.819l24.405-90.091c11.819 7.787 26.816 8.747 39.467 2.709l2.667-1.408 68.693-39.979c26.496-15.488 43.179-43.179 44.544-73.472l0.085-3.819v-75.52h20.053c5.056 0 9.237-3.691 9.941-8.491l0.107-1.493v-79.616c0-5.013-3.712-9.152-8.533-9.856l-1.493-0.107h-180.629c-5.056 0-9.216 3.691-9.941 8.491l-0.107 1.472v79.637c0 4.992 3.712 9.131 8.555 9.835l1.493 0.128h20.053v11.52c0 7.893-3.115 15.36-8.619 20.928l-1.92 1.771-46.805 39.829c-6.827 5.781-11.947 13.291-14.827 21.696l-0.96 3.2-43.563 161.216c-2.816 10.56-1.152 21.803 4.629 31.125 5.76 9.301 15.147 15.851 25.92 18.112zM702.677 228.971h-160.555v-59.733h160.555v59.733zM481.899 228.971h-160.555v-59.733h160.555v59.733zM774.656 538.709c-10.261 1.557-20.053-4.416-23.381-13.973l-0.576-1.963-27.605-102.037c6.229-17.792-0.704-37.376-16.448-47.467l-2.304-1.387-56.213-32.128c-3.093-1.771-6.933-1.771-10.027 0-3.115 1.792-5.035 5.077-5.035 8.64 0 3.051 1.408 5.909 3.776 7.765l1.259 0.853 56.192 32.128c9.707 5.227 13.696 17.003 9.152 26.987-3.371 6.763-10.347 11.029-17.92 10.965-2.837 0-5.611-0.597-8.171-1.707l-1.877-0.96-68.544-39.893c-20.437-11.947-33.387-33.237-34.603-56.597l-0.107-3.52v-75.52h100.352v11.52c0 13.504 5.525 26.368 15.211 35.712l2.325 2.091 46.784 39.808c3.947 3.349 6.955 7.68 8.704 12.48l0.789 2.453 43.541 161.216c0.448 1.707 0.683 3.435 0.661 5.184-0.085 9.365-6.72 17.387-15.936 19.349zM273.365 522.859c-2.624 10.667-13.013 17.6-23.957 15.936-9.28-1.941-15.915-10.027-15.979-19.413 0-1.173 0.085-2.347 0.299-3.477l0.363-1.707 43.563-161.216c1.323-4.971 3.947-9.515 7.573-13.184l1.92-1.749 46.784-39.808c10.325-8.789 16.576-21.333 17.429-34.709l0.085-3.093v-11.541h100.352v75.52c-0.043 23.552-12.011 45.397-31.68 58.24l-3.008 1.877-68.629 39.936c-3.029 1.707-6.485 2.624-9.984 2.624-7.552 0.064-14.507-4.16-17.899-10.88-4.267-9.344-1.024-20.288 7.403-25.92l1.749-1.067 56.192-32.128c3.115-1.771 5.035-5.056 5.035-8.619s-1.92-6.848-5.013-8.619c-2.667-1.536-5.867-1.749-8.683-0.661l-1.365 0.64-56.192 32.128c-16.597 9.173-24.555 28.373-19.563 46.293l0.811 2.56-27.605 102.037zM356.459 745.323c2.667 1.536 5.867 1.749 8.683 0.661l1.365-0.64 14.251-8.107c30.763-17.493 68.053-19.157 100.181-4.736l3.989 1.899 22.528 11.2c2.347 1.173 5.056 1.365 7.509 0.576l1.451-0.576 22.699-11.243c31.68-15.744 68.971-15.381 100.245 0.768l3.861 2.112 14.293 8.107c3.115 1.771 6.955 1.771 10.048 0 2.667-1.536 4.459-4.181 4.907-7.147l0.107-1.493v-125.44c0.107-90.155-49.003-173.12-128.043-217.024l-4.779-2.581-23.019-12.181c-2.453-1.301-5.333-1.515-7.936-0.64l-1.493 0.64-23.040 12.16c-80.213 42.347-130.901 124.373-132.757 214.229l-0.064 5.397v125.44c0 3.541 1.92 6.827 5.013 8.619zM511.936 725.504l-18.069-8.96c-37.355-18.56-81.344-18.197-118.272 0.811l-4.075 2.176v-108.267c-0.085-82.837 44.992-159.083 117.547-199.509l4.651-2.539 18.304-9.685 18.283 9.685c73.728 38.912 120.32 114.24 122.155 196.757l0.043 5.291v108.267c-36.373-20.395-80.341-22.187-118.187-5.013l-4.181 1.984-18.197 9.003zM507.456 701.077c2.347 1.173 5.077 1.365 7.552 0.576l1.472-0.576 4.736-2.347c30.656-15.083 65.579-19.456 99.072-12.373 2.965 0.64 6.059-0.085 8.427-1.984 1.963-1.579 3.243-3.819 3.627-6.272l0.107-1.493v-65.344c0.085-75.563-41.003-145.109-107.136-182.059l-4.437-2.411-4.139-2.197c-2.453-1.28-5.333-1.493-7.936-0.64l-1.493 0.64-4.139 2.197c-67.243 35.477-109.781 104.171-111.531 179.413l-0.043 5.056v65.365c0 2.987 1.365 5.845 3.712 7.723 2.347 1.899 5.419 2.624 8.384 2.027 31.744-6.72 64.768-3.157 94.229 10.091l4.885 2.304 4.629 2.304zM517.76 678.315l-5.76 2.731-0.171-0.107c-29.163-14.379-61.803-20.224-94.123-16.917l-6.037 0.725v-53.483c-0.085-69.653 38.485-133.675 100.352-166.592 60.416 32.149 98.624 93.995 100.288 161.728l0.064 4.864v53.461c-32.235-4.437-65.045 0.299-94.613 13.589zM568.789 627.883c2.517 2.603 6.251 3.627 9.749 2.731 3.52-0.917 6.251-3.627 7.168-7.125 0.789-2.987 0.128-6.123-1.707-8.533l-1.024-1.131-83.947-83.285c-3.52-3.477-9.024-3.84-12.928-1.045l-1.259 1.067-38.4 38.101c-3.84 3.904-3.776 10.112 0.107 13.952 3.477 3.456 8.896 3.84 12.8 1.152l1.28-1.024 31.317-31.083 76.843 76.224z" />
<glyph unicode="&#xe937;" horiz-adv-x="1094" d="M445.836 628.55l-233.239 96.314c-12.881 5.306-27.729 1.641-36.62-9.053l-168.657-202.764c-6.679-8.029-8.96-18.828-6.109-28.87l89.903-315.695c2.653-9.309 9.425-16.908 18.397-20.62 3.91-1.606 8.041-2.409 12.16-2.409 5.353 0 10.694 1.35 15.476 4.015l287.465 159.825c9.146 5.085 15.185 14.336 16.163 24.727l24.553 262.295c1.28 13.847-6.621 26.903-19.491 32.221z" />
<glyph unicode="&#xe938;" horiz-adv-x="1094" d="M445.568 632.204l-118.179 48.524-222.662-532.841c3.956-1.629 8.145-2.432 12.335-2.432 5.411 0 10.822 1.361 15.674 4.038l291.328 161.047c9.263 5.12 15.395 14.452 16.372 24.925l24.879 264.285c1.315 13.94-6.691 27.101-19.747 32.465z" />
<glyph unicode="&#xe939;" horiz-adv-x="1094" d="M550.447 860.404l-234.554 97.164c-7.831 3.247-16.64 3.247-24.471 0-7.82-3.247-14.045-9.46-17.292-17.292l-97.14-234.566c-3.247-7.831-3.247-16.628 0-24.46 3.235-7.831 9.46-14.045 17.292-17.292l234.554-97.164c4.003-1.641 8.145-2.432 12.218-2.432 12.544 0 24.436 7.436 29.545 19.735l97.164 234.554c6.749 16.303-1.001 34.991-17.303 41.751z" />
<glyph unicode="&#xe93a;" horiz-adv-x="1094" d="M550.644 864.244l-116.084 49.21-120.378-297.414 116.084-49.199c3.956-1.687 8.064-2.479 12.102-2.479 12.404 0 24.18 7.529 29.231 19.991l96.163 237.591c6.691 16.524-0.977 35.456-17.105 42.298z" />
<glyph unicode="&#xe93b;" horiz-adv-x="1094" d="M125.812 133.818c-4.177 0-8.413 0.791-12.509 2.444-16.698 6.772-24.634 25.484-17.711 41.821l120.716 285.056c6.912 16.337 26.065 24.087 42.752 17.327 16.698-6.772 24.634-25.484 17.711-41.821l-120.716-285.056c-5.225-12.335-17.408-19.77-30.255-19.77zM718.534-64h-686.487c-17.687 0-32.047 14.033-32.047 31.337s14.348 31.337 32.047 31.337h686.487c39.098 0 70.924 31.116 70.924 69.353 0 38.249-31.814 69.364-70.924 69.364-74.449 0-135.017 59.229-135.017 132.026 0 72.809 60.556 132.038 135.017 132.038h343.238c17.699 0 32.047-14.033 32.047-31.337s-14.348-31.337-32.047-31.337h-343.226c-39.11 0-70.935-31.116-70.935-69.353 0-38.249 31.825-69.364 70.935-69.364 74.449 0 135.017-59.229 135.017-132.026-0.012-72.809-60.579-132.038-135.028-132.038z" />
<glyph unicode="&#xe93c;" horiz-adv-x="1094" d="M1061.772 413.091h-343.226c-74.449 0-135.017-60.707-135.017-135.331s60.567-135.331 135.017-135.331c39.098 0 70.924-31.884 70.924-71.098 0-39.203-31.814-71.098-70.924-71.098h-171.636v-64.233h171.625c74.449 0 135.017 60.707 135.017 135.331s-60.567 135.331-135.017 135.331c-39.11 0-70.935 31.895-70.935 71.098s31.825 71.098 70.935 71.098h343.238c17.699 0 32.047 14.371 32.047 32.116 0 17.734-14.348 32.116-32.047 32.116z" />
<glyph unicode="&#xe93d;" d="M460.8-64h-102.4c-103.68 0-187.729 84.049-187.729 187.729h-68.271l119.471 119.471 119.459-119.471h-68.259c0-103.68 84.049-187.729 187.729-187.729zM512 311.471v68.259c0 94.255-76.404 170.671-170.671 170.671h-170.659c-94.255 0-170.671-76.404-170.671-170.671v-68.259z" />
<glyph unicode="&#xe93e;" d="M110.929 362.671c149.795 0 279.471 59.113 342.772 145.303-30.033 26.333-69.295 42.426-112.372 42.426h-170.659c-94.255 0-170.671-76.404-170.671-170.671v-5.818c35.119-7.284 72.343-11.241 110.929-11.241z" />
<glyph unicode="&#xe93f;" d="M170.671 379.729l85.329 85.341 85.329-85.341 33.466 167.343c-10.822 2.153-21.993 3.328-33.466 3.328h-170.659c-11.45 0-22.656-1.175-33.466-3.328l33.466-167.331z" />
<glyph unicode="&#xe940;" d="M187.729 550.4l68.271-85.329 68.271 85.329z" />
<glyph unicode="&#xe941;" d="M187.729 550.4l68.271-85.329 68.271 85.329z" />
<glyph unicode="&#xe942;" d="M136.529 652.8h-34.129c-28.276 0-51.2 22.924-51.2 51.2s22.924 51.2 51.2 51.2h34.129z" />
<glyph unicode="&#xe943;" d="M375.471 755.2h34.129c28.276 0 51.2-22.924 51.2-51.2s-22.924-51.2-51.2-51.2h-34.129z" />
<glyph unicode="&#xe944;" d="M392.529 840.529v-153.6c0-75.404-61.126-136.529-136.529-136.529s-136.529 61.137-136.529 136.529v153.6z" />
<glyph unicode="&#xe945;" d="M230.4 552.879c63.162 11.985 110.929 67.409 110.929 134.051v153.6h-221.859v-153.6c0-66.641 47.767-122.065 110.929-134.051z" />
<glyph unicode="&#xe946;" d="M290.129 874.671v-17.071c0-56.553-45.847-102.4-102.4-102.4h-102.4v85.329c0 65.978 53.492 119.471 119.471 119.471h102.4c65.978 0 119.471-53.492 119.471-119.471v-85.329h-85.341c-28.276 0-51.2 22.924-51.2 51.2v68.271z" />
<glyph unicode="&#xe947;" d="M374.388 939.287c-19.13 13.079-42.275 20.713-67.188 20.713h-102.4c-65.978 0-119.471-53.492-119.471-119.471v-85.329h102.4c56.553 0 102.4 45.847 102.4 102.4v-51.2c0-17.687 8.983-33.292 22.633-42.496 38.609 38.807 62.708 93.149 62.708 153.425 0 7.424-0.384 14.755-1.082 21.969z" />
<glyph unicode="&#xe948;" d="M1024-64v68.271c0 94.255-76.404 170.659-170.671 170.659h-170.659c-94.255 0-170.671-76.404-170.671-170.659v-68.271z" />
<glyph unicode="&#xe949;" d="M622.929-12.8c149.795 0 279.471 59.113 342.772 145.303-30.033 26.333-69.295 42.426-112.372 42.426h-170.659c-94.255 0-170.671-76.404-170.671-170.659v-5.818c35.119-7.296 72.343-11.252 110.929-11.252z" />
<glyph unicode="&#xe94a;" d="M682.671 4.271l85.329 85.329 85.329-85.329 33.466 167.331c-10.822 2.153-21.993 3.328-33.466 3.328h-170.659c-11.45 0-22.656-1.164-33.466-3.328l33.466-167.331z" />
<glyph unicode="&#xe94b;" d="M699.729 174.929l68.271-85.329 68.271 85.329z" />
<glyph unicode="&#xe94c;" d="M648.529 277.329h-34.129c-28.276 0-51.2 22.924-51.2 51.2s22.924 51.2 51.2 51.2h34.129z" />
<glyph unicode="&#xe94d;" d="M887.471 379.729h34.129c28.276 0 51.2-22.924 51.2-51.2s-22.924-51.2-51.2-51.2h-34.129z" />
<glyph unicode="&#xe94e;" d="M904.529 465.071v-153.6c0-75.404-61.126-136.541-136.529-136.541s-136.529 61.137-136.529 136.541v153.6z" />
<glyph unicode="&#xe94f;" d="M742.4 177.408c63.162 11.997 110.929 67.409 110.929 134.051v153.6h-221.859v-153.6c0-66.641 47.767-122.054 110.929-134.051z" />
<glyph unicode="&#xe950;" d="M802.129 499.2v-17.071c0-56.553-45.847-102.4-102.4-102.4h-102.4v85.341c0 65.978 53.492 119.459 119.471 119.459h102.4c65.978 0 119.471-53.481 119.471-119.459v-85.341h-85.341c-28.276 0-51.2 22.924-51.2 51.2v68.271z" />
<glyph unicode="&#xe951;" d="M886.388 563.828c-19.142 13.056-42.275 20.713-67.188 20.713h-102.4c-65.978 0-119.471-53.492-119.471-119.471v-85.341h102.4c56.553 0 102.4 45.847 102.4 102.4v-51.2c0-17.687 8.983-33.292 22.633-42.496 38.609 38.819 62.708 93.149 62.708 153.437 0 7.424-0.384 14.743-1.082 21.958z" />
<glyph unicode="&#xe952;" horiz-adv-x="1280" d="M627.81 9.143c-266.118 0-481.524 212.931-481.524 475.429 0 262.766 215.369 475.429 481.524 475.429 266.142 0 481.524-212.638 481.524-475.429 0-262.754-215.686-475.429-481.524-475.429z" />
<glyph unicode="&#xe953;" horiz-adv-x="1280" d="M627.81 960v-950.857c265.838 0 481.524 212.675 481.524 475.429 0 262.79-215.381 475.429-481.524 475.429z" />
<glyph unicode="&#xe954;" horiz-adv-x="1280" d="M630.723 374.857c-140.861 0-275.163-60.757-373.321-192.122 195.462-233.131 557.251-231.144 750.080 4.145-47.64 46.763-154.88 187.977-376.771 187.977z" />
<glyph unicode="&#xe955;" horiz-adv-x="1280" d="M1007.47 186.88c-91.721-111.055-229.376-177.737-379.66-177.737v365.714c223.61 0 331.678-141.251 379.66-187.977z" />
<glyph unicode="&#xe956;" horiz-adv-x="1280" d="M632.442 457.143c-94.476 0-171.313 75.581-171.313 168.485v56.186c0 92.879 76.837 168.472 171.313 168.472 94.452 0 171.313-75.581 171.313-168.485v-56.174c0-92.891-76.861-168.485-171.313-168.485z" />
<glyph unicode="&#xe957;" horiz-adv-x="1280" d="M627.81 850.286v-393.143c97.024 0 175.945 75.581 175.945 168.485v56.186c0 92.891-78.921 168.472-175.945 168.472z" />
<glyph unicode="&#xe958;" horiz-adv-x="1280" d="M190.338 228.212c-95.299-93.65-145.363-164.529-127.063-189.612 35.748-49.037 318.892 95.17 632.395 322.115 313.52 226.941 538.687 450.657 502.929 499.687-17.454 23.92-93.791 1.834-203.816-53.422" />
<glyph unicode="&#xe959;" horiz-adv-x="1012" d="M624.721-37.687h-236.947l38.947 127.068h159.054z" />
<glyph unicode="&#xe95a;" horiz-adv-x="1012" d="M1012.494 746.111v-565.892c0-58.264-47.357-105.656-105.564-105.656h-801.366c-58.207 0-105.564 47.403-105.564 105.656v565.892c0 58.253 47.357 105.656 105.564 105.656h801.366c58.207 0 105.564-47.403 105.564-105.656z" />
<glyph unicode="&#xe95b;" horiz-adv-x="1012" d="M953.332 748.561v-509.584c0-25.865-21.055-46.92-46.908-46.92h-800.354c-25.865 0-46.897 21.055-46.897 46.931v509.572c0 25.865 21.032 46.92 46.897 46.92h800.354c25.865 0 46.897-21.055 46.897-46.92z" />
<glyph unicode="&#xe95c;" horiz-adv-x="1012" d="M953.332 748.561v-509.584c0-25.865-21.055-46.92-46.908-46.92h-39.556c25.865 0 46.908 21.055 46.908 46.931v509.572c0 25.865-21.044 46.92-46.908 46.92h39.556c25.865 0 46.897-21.055 46.897-46.92z" />
<glyph unicode="&#xe95d;" horiz-adv-x="1012" d="M701.463-22.867c8.192 0 14.831-6.639 14.831-14.819 0-8.169-6.639-14.808-14.831-14.808h-390.432c-8.192 0-14.831 6.627-14.831 14.808s6.639 14.819 14.831 14.819zM187.265 147.082c8.18 0 14.831-6.627 14.831-14.808s-6.65-14.819-14.842-14.819h-60.577c-8.18 0-14.831 6.639-14.831 14.819 0 8.169 6.65 14.808 14.842 14.808zM305.911 147.082c8.192 0 14.842-6.627 14.842-14.808s-6.65-14.819-14.842-14.819h-60.589c-8.192 0-14.842 6.639-14.842 14.819 0 8.169 6.65 14.808 14.842 14.808zM227.397 271.17c8.18 0 14.831-6.65 14.831-14.842 0-8.18-6.65-14.831-14.842-14.831h-103.044c-8.192 0-14.842 6.65-14.842 14.842 0 8.18 6.65 14.831 14.842 14.831zM187.898 340.376c8.192 0 14.842-6.639 14.842-14.831s-6.65-14.831-14.842-14.831h-63.557c-8.192 0-14.842 6.639-14.842 14.842 0 8.18 6.65 14.819 14.842 14.819z" />
<glyph unicode="&#xe95e;" horiz-adv-x="1012" d="M830.671 619.813c0-150.689-102.757-277.4-242.021-313.85-26.302-6.903-53.915-10.562-82.403-10.562-179.177 0-324.424 145.247-324.424 324.412 0 179.177 145.247 324.424 324.424 324.424 28.488 0 56.101-3.659 82.403-10.562 139.264-36.461 242.021-163.161 242.021-313.873z" />
<glyph unicode="&#xe95f;" horiz-adv-x="1012" d="M506.247 960c-7.916 0-15.786-0.276-23.564-0.805-176.726-12.127-316.807-159.698-316.807-339.381 0-179.66 140.069-327.243 316.807-339.37 7.778-0.529 15.648-0.805 23.564-0.805 187.68 0 340.371 152.599 340.371 340.175 0 187.588-152.691 340.187-340.371 340.187zM705.26 858.095c64.662-54.042 107.094-133.833 111.328-223.451h-97.257c-2.071 77.571-20.227 150.563-51.867 208.689 11.667 3.912 23.011 8.284 33.976 13.082 1.289 0.552 2.554 1.105 3.82 1.68zM651.678 370.257c8.882-2.842 17.558-5.925 26.026-9.285-18.259-12.104-37.842-22.355-58.506-30.444 11.506 11.437 22.39 24.703 32.48 39.717zM521.089 310.312v81.218c34.851-0.966 68.55-5.327 100.26-12.886-28.856-39.579-63.592-63.281-100.271-68.332zM638.332 404.98c-36.876 9.653-76.363 15.153-117.242 16.223v61.267h-29.684v-61.267c-40.879-1.070-80.367-6.57-117.242-16.223-31.226 54.675-49.221 124.847-51.315 199.991h168.557v-53.271h29.684v53.271h168.557c-2.094-75.143-20.089-145.316-51.315-199.991zM322.848 634.621c2.083 75.155 20.089 145.35 51.315 200.025 36.876-9.665 76.363-15.176 117.242-16.246v-183.768h-168.557zM521.089 634.621v183.802c40.879 1.070 80.367 6.57 117.242 16.246 31.226-54.675 49.233-124.87 51.315-200.014h-168.557zM621.349 860.971c-31.709-7.571-65.409-11.931-100.271-12.875v81.23c36.68-5.051 71.415-28.741 100.271-68.343zM619.198 909.065c20.664-8.054 40.247-18.305 58.506-30.409-8.468-3.36-17.143-6.466-26.026-9.274-10.090 15.003-20.975 28.258-32.48 39.694zM491.405 929.338v-81.23c-34.862 0.955-68.573 5.316-100.271 12.886 28.856 39.602 63.592 63.292 100.271 68.343zM393.285 909.088c-11.506-11.425-22.39-24.68-32.48-39.694-8.882 2.83-17.558 5.925-26.026 9.285 18.259 12.104 37.842 22.344 58.506 30.421zM307.223 858.106c12.161-5.465 24.783-10.39 37.796-14.762-31.64-58.126-49.808-131.118-51.867-208.689h-97.257c4.234 89.629 46.667 169.409 111.328 223.439zM195.895 604.983h97.268c2.048-77.548 20.215-150.54 51.856-208.677-13.001-4.372-25.635-9.297-37.796-14.773-64.662 54.053-107.094 133.845-111.328 223.451zM334.767 360.983c8.48 3.36 17.155 6.443 26.037 9.274 10.090-15.015 20.975-28.281 32.48-39.717-20.664 8.088-40.247 18.34-58.506 30.444zM391.133 378.667c31.709 7.548 65.409 11.908 100.271 12.875v-81.218c-36.68 5.039-71.415 28.741-100.271 68.343zM705.248 381.544c-1.266 0.575-2.508 1.139-3.797 1.691-10.976 4.786-22.321 9.158-33.999 13.070 31.64 58.138 49.808 131.118 51.867 208.677h97.257c-4.234-89.606-46.667-169.397-111.328-223.439z" />
<glyph unicode="&#xe960;" horiz-adv-x="1012" d="M506.247 566.554c27.268 0 49.474-22.183 49.474-49.451s-22.206-49.451-49.474-49.451-49.474 22.183-49.474 49.451 22.206 49.451 49.474 49.451zM694.594 774.529c27.326 0 49.474-22.137 49.474-49.451 0-27.303-22.148-49.44-49.474-49.44s-49.474 22.137-49.474 49.44c0 27.314 22.148 49.451 49.474 49.451zM227.155 836.499c27.326 0 49.474-22.137 49.474-49.451s-22.148-49.451-49.474-49.451c-27.314 0-49.474 22.137-49.474 49.451s22.16 49.451 49.474 49.451z" />
<glyph unicode="&#xe961;" glyph-name="shape" horiz-adv-x="1138" d="M1129.984 495.787c-69.063 90.453-152.007 169.472-245.76 233.984l160.37 160.37c16.156 15.588 16.612 41.301 1.024 57.458s-41.358 16.612-57.458 1.024l-1.024-1.024-175.218-174.99c-74.524 40.96-157.924 63.317-243.029 64.967-308.85 0-550.969-327.794-561.095-341.788-10.411-14.222-10.411-33.564 0-47.787 69.006-90.453 151.95-169.472 245.76-234.041l-160.427-160.313c-16.1-15.588-16.498-41.301-0.967-57.458 15.588-16.156 41.358-16.612 57.458-1.024l1.024 1.024 175.218 174.99c74.524-41.017 157.924-63.317 243.029-65.024 308.793 0 550.969 327.851 561.095 341.845 10.411 14.222 10.411 33.564 0 47.787zM312.604 272.953c-82.773 55.125-157.013 122.14-220.16 198.94 59.733 72.42 253.724 284.444 476.444 284.444 63.374-1.308 125.668-16.555 182.386-44.715l-70.542-70.542c-93.298 62.009-219.193 36.523-281.145-56.775-45.17-67.982-45.17-156.444 0-224.427l-86.983-86.926zM678.628 524.117c7.964-16.27 12.117-34.133 12.174-52.224 0-67.356-54.613-121.913-121.913-121.913-18.091 0.057-35.954 4.267-52.224 12.174l161.963 161.963zM459.15 419.669c-7.964 16.27-12.117 34.133-12.174 52.224 0 67.3 54.613 121.913 121.913 121.913 18.091-0.057 35.954-4.267 52.224-12.231l-161.963-161.906zM568.889 187.449c-63.374 1.252-125.611 16.498-182.386 44.715l70.542 70.542c93.298-62.009 219.193-36.58 281.145 56.775 45.17 67.982 45.17 156.444 0 224.37l86.983 86.983c82.773-55.182 157.013-122.197 220.16-198.94-59.733-72.476-253.724-284.444-476.444-284.444z" />
<glyph unicode="&#xe962;" glyph-name="shape-2" horiz-adv-x="1229" d="M909.619 960c80.384 0 157.133-13.107 216.166-36.864 62.515-25.19 98.611-60.416 102.656-99.738l0.358-7.424v-576c0-42.291-36.557-80.384-103.014-107.11-49.92-20.070-112.538-32.563-179.251-35.942l-20.122-0.717c0-82.278-134.144-144.179-312.013-144.179-172.902 0-304.538 58.47-311.706 137.216l-0.307 6.758c-74.24 1.894-144.486 14.746-199.373 36.864-62.515 25.19-98.611 60.416-102.656 99.738l-0.358 7.424v576c0 42.291 36.557 80.384 103.014 107.11 59.034 23.757 135.834 36.864 216.166 36.864 80.384 0 157.184-13.107 216.218-36.864 34.918-14.080 61.542-31.232 79.002-50.534 17.408 19.251 44.083 36.454 79.002 50.534 59.034 23.757 135.834 36.864 216.218 36.864zM878.387 305.101c-54.272-39.782-150.221-65.126-263.987-65.126-107.827 0-199.526 22.784-255.078 58.982l-8.909 6.144v-65.126c0-31.13 60.16-73.062 171.725-89.446 13.107-1.894 22.17-14.131 20.224-27.238-1.741-11.93-11.981-20.48-23.706-20.48-1.126 0-2.304 0.051-3.482 0.256-58.675 8.602-109.414 24.576-146.688 46.080-4.403 2.56-8.55 5.171-12.442 7.782l-5.632 3.942v-64.87c0-21.094 26.010-44.544 69.581-62.72 51.558-21.453 120.576-33.28 194.406-33.28s142.848 11.827 194.406 33.28c40.448 16.896 65.792 38.298 69.222 58.163l0.358 4.557v64.87c-5.427-3.942-11.418-7.834-18.074-11.674-37.274-21.606-88.013-37.53-146.688-46.131-1.178-0.205-2.355-0.256-3.482-0.256-11.725 0-22.016 8.55-23.706 20.48-1.946 13.107 7.168 25.344 20.224 27.238 107.11 15.718 166.861 54.989 171.469 85.709l0.256 3.789v65.024zM614.4 143.974c13.261 0 24.013-10.752 24.013-23.962 0-13.261-10.752-24.013-24.013-24.013s-24.013 10.752-24.013 24.013c0 13.21 10.752 23.962 24.013 23.962zM47.974 306.278v-66.253c0-20.48 27.955-44.493 72.96-62.618 44.237-17.818 102.298-29.235 163.123-32.461l18.33-0.717v96c-74.24 1.69-144.486 14.541-199.373 36.659-17.254 6.963-32.512 14.643-45.568 23.040l-9.421 6.349zM1180.826 306.278c-15.053-10.803-33.434-20.685-55.040-29.389-49.92-20.122-112.538-32.563-179.251-35.942l-20.122-0.717v-96c67.43 1.69 132.762 13.568 181.453 33.178 41.984 16.896 69.12 38.912 72.55 58.47l0.358 4.096v66.304zM614.4 480c-141.005 0-243.712-42.803-261.478-84.224-1.69-3.994-2.56-7.834-2.56-11.776 0-21.094 26.061-44.544 69.632-62.72 51.558-21.453 120.576-33.28 194.406-33.28s142.848 11.827 194.406 33.28c43.571 18.176 69.632 41.626 69.632 62.72 0 3.942-0.87 7.782-2.56 11.827-17.818 41.37-120.474 84.173-261.478 84.173zM1180.826 450.304c-15.053-10.854-33.434-20.736-55.040-29.44-49.92-20.070-112.538-32.563-179.251-35.942l-20.122-0.717v-95.949c67.43 1.69 132.762 13.568 181.453 33.178 41.984 16.896 69.12 38.912 72.55 58.419l0.41 4.147v66.253zM47.974 450.304v-66.304c0-20.48 27.955-44.493 72.96-62.566 44.237-17.869 102.298-29.286 163.123-32.461l18.33-0.717v95.949c-74.24 1.69-144.486 14.541-199.373 36.659-17.254 6.963-32.512 14.694-45.568 23.040l-9.421 6.349zM590.387 594.278c-15.053-10.854-33.434-20.685-54.989-29.389-59.034-23.808-135.834-36.864-216.218-36.864s-157.133 13.056-216.166 36.864c-17.254 6.963-32.512 14.643-45.568 23.040l-9.421 6.349v-66.253c0-20.48 27.904-44.493 72.909-62.618 52.582-21.197 124.621-33.331 197.683-33.382 18.944 26.624 53.709 49.306 101.99 66.304 42.803 15.053 94.618 24.781 149.197 28.262l20.582 1.024v66.662zM1180.774 594.278c-15.002-10.854-33.382-20.685-54.989-29.389-59.034-23.808-135.834-36.864-216.166-36.864-80.384 0-157.184 13.056-216.218 36.864-17.254 6.963-32.461 14.643-45.568 23.040l-9.421 6.349v-66.714c62.054-2.048 121.6-12.288 169.779-29.235 48.333-17.050 83.098-39.731 101.99-66.304 73.062 0 145.101 12.186 197.683 33.382 41.984 16.896 69.12 38.912 72.55 58.47l0.358 4.096v66.304zM590.438 738.253c-15.104-10.803-33.485-20.685-55.040-29.389-59.034-23.757-135.834-36.864-216.218-36.864s-157.133 13.107-216.166 36.864c-17.254 6.963-32.512 14.694-45.568 23.040l-9.421 6.349v-66.253c0-20.48 27.904-44.493 72.909-62.566 52.736-21.248 124.979-33.434 198.246-33.434 73.318 0 145.562 12.186 198.298 33.434 41.984 16.896 69.12 38.912 72.55 58.419l0.358 4.147v66.253zM1180.774 738.253c-15.002-10.803-33.382-20.685-54.989-29.389-59.034-23.757-135.834-36.864-216.166-36.864-80.384 0-157.184 13.107-216.218 36.864-17.254 6.963-32.461 14.694-45.568 23.040l-9.421 6.349v-66.253c0-20.48 27.955-44.493 72.909-62.566 52.736-21.248 124.979-33.434 198.298-33.434 73.267 0 145.562 12.186 198.246 33.434 41.984 16.896 69.12 38.912 72.55 58.419l0.358 4.147v66.253zM909.619 911.974c-73.318 0-145.562-12.134-198.298-33.382-44.954-18.125-72.909-42.086-72.909-62.618 0-20.48 27.955-44.442 72.909-62.566 52.736-21.248 124.979-33.382 198.298-33.382 73.267 0 145.562 12.134 198.246 33.382 45.005 18.125 72.909 42.086 72.909 62.618 0 20.48-27.904 44.442-72.909 62.566-52.736 21.248-124.979 33.382-198.246 33.382zM319.181 911.974c-73.267 0-145.562-12.134-198.246-33.382-45.005-18.125-72.909-42.086-72.909-62.618 0-20.48 27.904-44.442 72.909-62.566 52.736-21.248 124.979-33.382 198.246-33.382 73.318 0 145.562 12.134 198.298 33.382 44.954 18.125 72.909 42.086 72.909 62.618 0 20.48-27.955 44.442-72.909 62.566-52.736 21.248-124.979 33.382-198.298 33.382z" />
<glyph unicode="&#xe963;" glyph-name="shape-3" horiz-adv-x="1446" d="M1445.045 399.33c-1.687 39.996-40.84 71.981-116.616 94.991-58.729 17.589-133.301 28.25-213.956 29.997v307.2c-0.301 5.24-1.747 10.12-4.337 14.456-8.072 34.816-46.923 63.066-115.772 83.787-64.753 19.576-149.384 30.238-238.411 30.238-88.727 0-172.514-10.662-236.122-30.238-52.164-16.143-114.628-46.080-114.628-97.581 0-3.192 0.241-6.385 0.843-9.517l3.192-131.313c-187.211 35.659-367.797-87.341-403.215-274.191-4.036-21.323-6.024-42.647-6.024-64.211 0-190.042 154.624-344.727 344.727-344.727 79.149 0 155.768 27.106 217.088 77.161 53.911-12.649 117.218-19.576 184.32-20.119 14.697-79.752 187.512-116.375 348.461-116.375 88.727 0 172.514 10.963 236.122 30.84 52.164 16.143 114.628 46.381 114.628 97.882v316.235c0 1.687 0 3.735-0.301 5.421zM1054.298 672.316c0-3.735-13.854-23.612-76.318-42.647-58.428-17.528-139.384-27.889-221.726-27.889-71.138 0-140.83 7.469-196.126 21.564-0.904 0.301-1.446 0.301-2.289 0.602-27.407 21.564-57.645 38.852-90.172 50.959l-1.988 81.197c19.878-10.059 40.599-18.131 62.163-23.913 62.524-18.071 143.42-27.889 228.412-27.889 88.666 0 173.598 10.601 238.411 30.238 21.624 6.325 42.647 14.637 62.524 25.058v-75.475c-3.192-4.036-2.891-7.831-2.891-11.806zM537.058 874.165c58.187 17.89 135.951 27.949 218.895 27.949 82.342 0 163.238-10.059 221.726-27.949 62.524-18.974 76.318-38.551 76.318-42.285 0-4.036-14.095-23.913-76.619-42.647-58.428-17.589-139.083-27.648-221.425-27.648-79.511 0-154.925 9.216-212.269 25.901-61.922 17.89-79.149 37.466-80.595 43.791 0 0.602-0.301 0.602-0.301 0.602 0.301 5.421 13.553 23.853 74.27 42.285zM537.961 140.439c-117.218-106.616-298.948-98.184-405.504 18.974-106.556 117.218-98.184 298.948 19.034 405.504 52.706 48.068 121.796 74.571 193.235 74.571 28.792 0 57.284-4.337 84.932-12.649 99.93-31.142 175.104-114.086 196.367-216.245 3.795-19.034 5.783-38.671 5.783-57.946 0.301-80.896-33.973-157.816-93.847-212.209zM611.087 134.054c23.311 28.552 42.044 60.476 55.296 94.75 24.456-1.988 49.815-3.433 76.318-3.735v-5.18l1.747-97.581c-44.634 0.542-89.329 4.578-133.361 11.746zM688.008 386.921c16.685-1.205 34.214-1.747 52.104-1.988l1.747-101.978c-20.179 0.301-40.056 1.205-59.031 2.59 4.277 22.167 6.626 44.936 6.626 67.403 0 11.204-0.602 22.468-1.446 33.973zM758.844 442.217h-2.891c-27.708 0-54.453 1.205-79.209 2.891-10.963 38.551-28.19 74.872-51.561 107.098 43.189-5.421 86.739-8.312 130.47-8.312 88.968 0 173.96 10.662 238.712 30.238 21.624 6.325 42.345 14.637 62.223 24.696v-75.415c-123.543-3.433-250.579-29.335-297.743-81.197zM796.792 396.439c0 0.301 0 0.602 0.301 1.144 2.59 7.77 23.070 26.805 82.703 43.49 55.838 15.842 128.723 24.456 205.282 24.456h4.939c82.342 0 162.997-9.517 221.666-27.347 61.44-18.432 75.776-37.406 76.077-41.743v-0.301c-0.301-4.337-14.697-24.215-78.607-43.189-59.031-17.589-136.794-27.106-218.895-27.106-79.511 0-154.925 9.216-212.209 25.66-61.922 17.83-78.908 37.707-80.655 43.791l-0.602 1.144zM1314.033 34.424c-58.187-18.071-136.192-28.19-219.136-28.19-83.245 0-161.009 9.758-218.594 27.347-60.777 18.673-73.427 38.008-73.427 42.345v0.602l-1.446 83.486c23.070-11.264 46.984-19.878 71.68-26.202 60.536-15.842 137.397-24.757 216.305-24.757 88.968 0 173.357 10.601 237.929 30.238 20.962 6.325 41.141 14.637 60.416 24.456v-86.377h0.301c0-4.036-13.252-23.913-74.029-42.948zM1388.363 246.392h-0.301c0-2.891-1.747-6.325-1.747-9.517 0-4.036-13.553-23.612-75.716-42.586-59.031-17.89-137.638-27.708-220.883-27.708-159.563 0-266.963 36.021-289.431 63.97l-0.301 24.215-1.144 66.259c20.179-10.12 41.201-18.191 62.765-24.215 62.524-18.191 143.42-27.949 228.412-27.949 87.522 0 171.068 10.36 235.279 29.395 21.865 6.024 42.888 14.396 63.066 24.696v-76.559z" />
<glyph unicode="&#xe964;" glyph-name="shape-4" horiz-adv-x="896" d="M99.413 517.205c13.952 13.952 36.565 13.995 50.517 0 13.952-13.909 13.952-36.565 0-50.517-50.603-50.603-78.507-117.931-78.507-189.525 0-147.755 120.235-267.947 267.989-267.947 71.595 0 138.923 27.819 189.525 78.464 13.952 13.952 36.565 13.952 50.517 0s13.952-36.565 0-50.517c-64.128-64.128-149.333-99.413-240.043-99.413-187.093-0.043-339.413 152.277-339.413 339.413 0 90.709 35.285 175.957 99.413 240.043zM328.832 741.973c18.219 0 33.237-13.653 35.413-31.232l0.299-4.48v-110.251h245.973c19.755 0 35.755-16 35.755-35.712 0-18.219-13.653-33.28-31.275-35.413l-4.48-0.299h-245.973v-160.427h264.875c13.397 0 25.472-7.424 31.573-19.072l2.005-4.523 62.933-174.549h101.632c19.712 0 35.712-16 35.712-35.712 0-18.219-13.653-33.28-31.275-35.413l-4.48-0.299h-126.72c-13.355 0-25.472 7.424-31.573 19.072l-2.005 4.523-62.891 174.549h-275.499c-18.219 0-33.28 13.653-35.413 31.232l-0.299 4.48v377.813c0 19.712 15.957 35.712 35.712 35.712zM330.155 960c47.957 0 86.784-38.869 86.784-86.741 0-47.957-38.827-86.784-86.784-86.784-47.915 0-86.741 38.827-86.741 86.784 0 47.872 38.827 86.741 86.741 86.741z" />
<glyph unicode="&#xe965;" glyph-name="shape-5" d="M512 960c136.747 0 265.344-53.248 362.027-149.973 96.725-96.64 149.973-225.28 149.973-362.027 0-101.077-29.995-199.339-86.741-284.245-12.288-18.347-37.12-23.296-55.467-11.008-18.389 12.288-23.339 37.12-11.051 55.467 47.915 71.68 73.259 154.624 73.259 239.787 0 238.208-193.792 432-432 432s-432-193.792-432-432 193.792-432 432-432c79.019 0 156.288 21.504 223.488 62.208 18.859 11.435 43.52 5.419 54.912-13.483 11.477-18.901 5.419-43.52-13.483-54.955-79.701-48.256-171.307-73.771-264.917-73.771-136.747 0-265.344 53.248-362.027 149.973-96.725 96.64-149.973 225.28-149.973 362.027s53.248 265.344 149.973 362.027c96.64 96.725 225.28 149.973 362.027 149.973zM512 807.979c20.48 0 37.419-15.403 39.723-35.328l0.299-4.651v-320c0-8.832-2.987-17.365-8.277-24.32l-3.456-3.968-158.379-158.379c-7.808-7.808-18.048-11.733-28.288-11.733s-20.48 3.925-28.288 11.733c-14.421 14.421-15.531 37.12-3.328 52.779l3.328 3.797 146.688 146.645v303.445c0 22.101 17.92 40.021 39.979 40.021z" />
</font>
</defs>
</svg>
